<?xml version="1.0" standalone="no"?>
<!DOCTYPE svg PUBLIC "-//W3C//DTD SVG 20010904//EN"
 "http://www.w3.org/TR/2001/REC-SVG-20010904/DTD/svg10.dtd">
<svg version="1.0" xmlns="http://www.w3.org/2000/svg"
 width="1024.000000pt" height="1024.000000pt" viewBox="0 0 1024.000000 1024.000000"
 preserveAspectRatio="xMidYMid meet">
<metadata>
Created by potrace 1.14, written by Peter Selinger 2001-2017
</metadata>
<g transform="translate(0.000000,1024.000000) scale(0.100000,-0.100000)"
fill="#000000" stroke="none">
<path d="M0 5120 l0 -5120 5120 0 5120 0 0 5120 0 5120 -5120 0 -5120 0 0
-5120z m5221 4488 c57 -79 191 -260 299 -403 108 -143 229 -307 270 -365 75
-107 108 -149 75 -95 -10 17 -24 39 -32 50 -15 22 -17 39 -5 31 5 -3 9 1 9 9
0 18 -17 20 -17 3 0 -7 -12 0 -26 16 l-26 29 32 20 c19 12 33 31 37 48 7 37
14 36 42 -1 27 -37 44 -31 94 35 l34 44 6 -92 c5 -83 4 -94 -14 -114 -25 -26
-19 -55 19 -95 14 -15 24 -29 21 -31 -2 -2 -16 -8 -31 -15 -16 -6 -28 -18 -28
-25 0 -22 43 -81 69 -93 12 -6 33 -27 46 -47 20 -29 32 -36 67 -40 56 -6 217
-65 345 -127 130 -63 214 -139 268 -241 46 -87 67 -195 55 -280 -10 -68 -13
-75 -39 -82 -17 -4 -18 -2 -11 19 5 13 6 24 2 24 -5 0 -8 46 -8 103 1 94 -2
107 -30 167 -62 131 -173 218 -288 226 -30 2 -76 9 -103 15 -26 6 -76 15 -111
19 -49 6 -69 14 -87 34 -13 14 -22 26 -18 26 3 0 -8 15 -23 33 -16 18 -40 49
-54 70 -23 33 -51 54 -34 25 22 -38 96 -142 128 -181 35 -43 39 -45 82 -42 24
2 42 0 39 -5 -11 -18 21 -29 60 -20 l40 9 -45 -40 c-29 -25 -52 -38 -63 -35
-27 7 -18 -9 69 -127 76 -101 79 -104 105 -93 22 8 35 6 61 -6 l33 -17 -28 0
c-19 -1 -33 -10 -46 -32 -29 -48 -12 -80 97 -186 52 -51 90 -93 84 -93 -7 0
-12 5 -12 10 0 6 -5 10 -11 10 -5 0 -7 -5 -3 -12 12 -19 -111 78 -164 130 -78
76 -185 227 -261 367 -81 150 -97 176 -75 120 9 -22 22 -58 30 -80 28 -78 68
-164 75 -160 12 8 30 -110 32 -220 l2 -110 -27 -3 c-22 -3 -28 1 -28 15 0 15
-2 16 -10 3 -8 -12 -10 -11 -10 8 0 12 -4 22 -10 22 -5 0 -10 -11 -10 -25 0
-22 15 -33 129 -89 299 -150 578 -346 799 -560 57 -55 111 -102 120 -104 9 -2
35 -7 57 -12 40 -7 40 -8 7 -9 -18 0 -42 4 -54 10 -11 6 19 -34 67 -88 146
-166 272 -354 419 -625 55 -102 207 -266 380 -413 81 -68 102 -91 91 -98 -8
-4 -19 -6 -24 -2 -5 3 -16 -1 -24 -9 -12 -13 -17 -13 -38 2 -52 36 -207 173
-224 198 -25 39 -27 24 -5 -42 35 -100 98 -373 115 -494 26 -181 31 -469 11
-634 -34 -294 -115 -568 -207 -698 -11 -14 -19 -29 -19 -32 0 -3 48 -61 106
-128 185 -215 214 -268 293 -534 75 -254 84 -309 79 -487 -4 -128 -9 -169 -34
-259 -32 -119 -30 -125 29 -135 29 -4 40 -1 60 19 l25 25 24 -23 c24 -24 35
-27 81 -25 19 1 27 6 27 19 0 26 -51 100 -103 151 -26 24 -43 49 -40 54 4 6 0
8 -10 4 -8 -3 -20 0 -26 7 -9 10 -7 13 9 12 29 -1 140 -104 196 -181 40 -54
62 -73 117 -102 79 -42 172 -137 212 -216 54 -109 22 -232 -71 -277 -76 -37
-133 -24 -207 48 l-47 46 -85 -42 c-47 -23 -88 -42 -91 -42 -3 0 4 13 16 30
19 27 51 46 105 64 13 5 16 9 7 15 -7 4 4 8 26 9 34 1 58 -5 105 -29 11 -6 17
-5 17 2 0 8 7 6 18 -4 34 -31 101 -14 121 30 18 39 13 74 -18 130 -21 38 -24
50 -13 44 43 -23 91 -97 83 -126 -1 -5 1 -7 5 -2 49 48 -46 151 -213 230 -58
27 -79 32 -144 32 l-77 0 19 27 20 27 -36 7 c-25 4 -55 0 -96 -14 -32 -11 -57
-16 -53 -11 3 5 -6 10 -20 11 -14 0 -31 1 -36 2 -13 1 -75 -42 -197 -137 -49
-37 -94 -65 -101 -62 -8 3 -10 0 -6 -7 5 -8 2 -9 -9 -5 -9 3 -19 1 -23 -5 -4
-7 -3 -8 4 -4 7 4 12 5 12 2 0 -3 -10 -10 -21 -17 -17 -8 -20 -8 -14 1 5 8 3
11 -6 8 -8 -3 -13 -10 -12 -16 2 -6 -4 -9 -12 -6 -8 3 -27 -3 -42 -13 -15 -11
-44 -26 -63 -33 -37 -15 -112 -22 -105 -10 9 14 157 92 163 86 3 -3 -1 -6 -8
-6 -7 0 -11 -3 -7 -6 3 -3 21 6 40 20 19 14 37 26 42 26 18 0 226 209 265 267
70 103 63 110 -11 11 -66 -89 -75 -99 -84 -90 -5 4 -5 2 -2 -4 4 -6 -2 -19
-13 -29 -11 -10 -20 -14 -20 -9 -1 5 -10 -2 -20 -15 -11 -13 -20 -19 -20 -15
1 5 41 51 90 103 55 59 103 121 125 162 19 37 35 69 35 72 0 3 -26 -10 -57
-29 -37 -22 -64 -32 -77 -28 -16 4 -18 3 -7 -5 12 -8 10 -11 -12 -16 -66 -17
-119 36 -98 97 11 31 6 51 -7 33 -4 -6 -20 -11 -37 -13 l-30 -2 28 16 c16 8
34 29 42 46 l13 31 13 -24 c7 -13 16 -49 19 -79 l5 -55 39 -3 c42 -4 135 29
159 56 42 46 47 271 9 422 -12 47 -33 135 -48 195 -39 165 -92 264 -235 440
-4 6 -2 22 5 35 11 21 10 30 -1 54 -12 23 -12 27 -1 21 7 -3 4 1 -6 9 -18 14
-103 16 -785 15 -421 -1 -779 -4 -796 -8 l-30 -7 25 -16 c34 -23 236 -104 345
-139 106 -34 307 -74 418 -84 42 -4 80 -11 82 -16 10 -15 -156 -52 -311 -70
-120 -13 -298 -5 -445 22 -275 49 -587 206 -884 444 -153 123 -223 172 -355
252 -328 199 -526 340 -770 547 -356 303 -464 458 -516 746 -2 8 -6 35 -9 60
-7 44 -6 44 8 18 8 -14 20 -43 27 -65 14 -44 64 -147 83 -169 6 -9 23 -25 36
-37 14 -12 73 -69 131 -127 58 -58 123 -119 145 -136 22 -18 67 -53 99 -80
118 -94 339 -217 449 -249 90 -26 88 -13 -4 36 -212 113 -379 253 -532 445
-147 184 -256 375 -352 614 -68 169 -88 240 -105 370 -6 47 -18 123 -28 170
-11 60 -16 139 -17 270 0 176 1 188 27 258 51 141 141 262 288 389 119 102
127 105 78 31 -113 -170 -140 -358 -78 -558 26 -84 117 -253 132 -244 6 4 8 3
4 -4 -3 -6 12 -40 35 -76 40 -64 54 -81 43 -52 -3 8 -1 17 5 21 6 3 11 16 12
28 1 20 2 20 9 -3 8 -24 8 -24 9 -2 1 12 -5 25 -13 28 -8 3 -11 15 -8 31 4 22
2 24 -16 19 -11 -4 -23 -2 -27 4 -4 6 -13 9 -20 6 -29 -11 -22 25 14 76 38 55
236 308 302 388 21 25 77 100 126 167 92 127 298 402 384 513 27 36 46 66 41
68 -16 5 -250 -37 -410 -74 -357 -83 -647 -209 -967 -421 -99 -66 -195 -127
-212 -137 -38 -19 -45 -31 -9 -14 33 15 63 4 46 -17 -7 -8 -19 -15 -26 -15 -8
0 -14 -4 -14 -10 0 -5 -6 -10 -13 -10 -8 0 -24 -12 -38 -26 -13 -14 -38 -34
-56 -45 -18 -12 -31 -25 -28 -29 3 -5 0 -12 -6 -16 -8 -4 -9 -3 -5 4 5 8 0 12
-13 12 -12 0 -21 -4 -21 -10 0 -5 4 -10 10 -10 5 0 6 -7 3 -17 -5 -12 -3 -14
8 -8 12 7 12 6 1 -6 -7 -8 -16 -14 -20 -14 -10 0 -58 -35 -53 -38 3 -1 0 -11
-7 -22 -6 -11 -12 -16 -12 -11 0 6 -7 1 -16 -10 -8 -10 -13 -14 -10 -7 4 6 2
14 -3 18 -6 3 -8 -5 -5 -19 3 -17 -2 -28 -13 -35 -10 -6 -12 -11 -5 -11 6 0
12 -5 12 -11 0 -5 -4 -7 -10 -4 -14 8 -13 1 5 -42 8 -20 13 -38 10 -41 -3 -3
0 -10 5 -17 13 -16 -12 -168 -37 -220 -10 -22 -36 -67 -58 -100 -61 -93 -145
-267 -146 -300 -1 -48 10 -98 24 -107 9 -6 9 -8 0 -8 -17 0 -16 -21 3 -60 9
-18 13 -35 8 -39 -5 -3 -10 -10 -11 -16 -1 -5 -2 -14 -3 -20 -5 -24 1 -56 9
-50 5 3 16 -4 24 -16 11 -15 16 -17 21 -7 3 7 4 0 1 -17 -2 -16 -2 -24 1 -17
3 6 11 9 16 6 7 -4 8 -2 4 4 -4 7 -3 12 2 12 11 0 53 66 57 90 2 8 4 17 5 20
1 3 5 -5 10 -17 7 -17 2 -38 -20 -85 -76 -168 -127 -381 -137 -565 -3 -67 -10
-120 -15 -117 -4 3 -8 -5 -9 -18 -1 -25 -4 -19 -14 27 -6 28 -7 28 -18 10 -6
-11 -11 -24 -12 -30 0 -13 -20 -18 -20 -6 0 5 -4 13 -8 18 -5 4 -7 -6 -4 -24
3 -21 1 -32 -6 -30 -7 1 -16 -13 -21 -30 -6 -18 -17 -33 -26 -34 -10 0 -11 -2
-2 -6 7 -3 19 0 26 6 9 8 13 7 13 -4 0 -8 -3 -13 -5 -10 -13 13 -32 -21 -32
-56 0 -22 -3 -39 -7 -39 -9 0 -9 -78 1 -175 7 -70 7 -70 -26 -105 -18 -19 -46
-60 -62 -90 -16 -30 -34 -62 -41 -70 -7 -8 -27 -46 -46 -85 l-33 -70 -27 86
c-70 218 -113 478 -124 759 -4 91 -7 171 -8 178 0 15 -22 10 -23 -6 -1 -7 -2
-18 -3 -26 -1 -18 -51 -8 -51 10 0 8 -4 14 -10 14 -5 0 -10 -7 -10 -15 0 -8 4
-15 8 -15 11 0 12 -39 1 -45 -5 -4 -9 4 -10 17 0 22 -1 22 -8 3 -5 -11 -6 -26
-3 -34 3 -9 1 -12 -6 -7 -7 4 -12 2 -12 -3 0 -6 4 -11 10 -11 5 0 7 -6 4 -14
-3 -8 -12 -12 -20 -9 -8 3 -14 -1 -14 -8 0 -11 -3 -11 -11 1 -8 12 -9 8 -5
-15 3 -16 3 -24 0 -17 -3 6 -11 9 -16 6 -7 -4 -8 -2 -4 5 4 6 2 18 -4 26 -16
20 -4 244 21 400 21 127 66 307 104 415 49 140 194 428 292 582 139 215 204
299 367 466 286 293 549 486 915 673 119 60 141 75 127 84 -22 17 -32 182 -17
282 35 222 61 302 165 513 101 203 86 181 491 725 218 293 328 443 350 478 9
15 18 27 20 27 1 0 49 -64 106 -142z m-902 -698 c4 0 15 16 24 35 18 38 37 46
37 17 0 -10 11 -29 25 -42 l24 -23 -40 -29 c-22 -16 -42 -35 -46 -43 -3 -8
-12 -15 -21 -15 -12 0 -10 6 9 27 15 17 17 22 5 13 -11 -8 -34 -37 -52 -65
-17 -27 -41 -59 -51 -70 -18 -18 -18 -21 -4 -33 14 -11 13 -11 -6 -2 -13 6
-23 15 -23 20 0 5 -7 7 -15 3 -9 -3 -1 10 17 29 18 18 36 32 41 30 4 -2 8 2 8
7 3 20 5 26 22 58 14 27 15 37 5 60 -19 44 -32 46 -45 8 -13 -37 -11 -61 7
-94 7 -14 7 -21 0 -21 -5 0 -10 7 -10 15 0 9 -12 27 -26 40 -24 22 -25 26 -14
61 7 20 10 60 8 90 l-5 53 60 -64 c32 -36 62 -65 66 -65z m-121 -348 c-35 -58
-50 -76 -83 -99 -32 -22 -158 -76 -215 -92 -30 -8 -32 -9 -9 -10 14 -1 48 6
74 14 54 16 64 13 45 -10 -19 -23 -90 -52 -155 -64 -160 -28 -176 -33 -234
-72 -81 -54 -150 -149 -170 -236 -7 -30 -9 -33 -10 -12 -1 38 53 140 105 199
25 27 44 50 41 50 -13 0 -89 -87 -114 -129 -14 -25 -30 -49 -35 -52 -5 -3 -16
-26 -24 -50 l-14 -44 6 40 c16 110 140 262 262 324 60 30 356 150 417 168 19
6 36 21 45 41 8 17 20 32 26 32 7 0 22 9 35 20 33 27 33 25 7 -18z m-30 -137
c-16 -30 -34 -58 -40 -61 -7 -4 -8 -2 -4 4 4 7 9 21 11 32 3 16 53 80 62 80 0
0 -12 -25 -29 -55z m-148 -170 c-7 -8 -9 -15 -5 -15 4 0 2 -7 -5 -15 -7 -8 -9
-15 -6 -15 4 0 -3 -15 -15 -32 l-22 -33 31 29 c40 37 40 31 2 -34 -17 -28 -28
-55 -25 -60 3 -4 -2 -10 -10 -14 -8 -3 -15 -15 -15 -26 0 -12 -16 -36 -36 -54
-20 -19 -34 -38 -30 -44 3 -5 -2 -16 -12 -23 -16 -13 -16 -12 -4 6 8 11 -3 0
-25 -24 -47 -55 -133 -144 -108 -113 16 20 14 27 -8 23 -4 -1 -1 9 7 21 29 47
28 65 -5 102 -17 20 -36 33 -42 29 -6 -3 -7 -1 -3 5 10 16 25 15 60 -3 15 -8
32 -13 36 -10 4 3 36 46 70 96 78 114 119 161 133 152 5 -3 7 -1 4 4 -6 10 28
63 40 63 3 0 0 -7 -7 -15z m-78 -38 c9 -1 15 -4 12 -8 -8 -13 -67 -4 -72 10
-4 11 1 12 19 7 13 -5 32 -8 41 -9z m162 -54 c-19 -61 -41 -163 -50 -233 -4
-30 -9 -49 -12 -41 -4 11 -6 11 -14 0 -14 -22 -1 110 16 156 29 75 36 96 36
100 0 3 0 10 0 16 0 5 5 7 10 4 6 -3 10 2 10 13 0 16 8 32 16 32 2 0 -4 -21
-12 -47z m-666 -263 l-1 -45 -4 43 c-2 23 -8 42 -13 42 -4 0 -6 10 -2 22 5 21
6 21 13 2 4 -10 7 -39 7 -64z m559 38 c-3 -8 -6 -5 -6 6 -1 11 2 17 5 13 3 -3
4 -12 1 -19z m-600 -10 c-3 -8 -6 -5 -6 6 -1 11 2 17 5 13 3 -3 4 -12 1 -19z
m20 -50 c-2 -13 -4 -5 -4 17 -1 22 1 32 4 23 2 -10 2 -28 0 -40z m610 -45 c-3
-10 -5 -4 -5 12 0 17 2 24 5 18 2 -7 2 -21 0 -30z m2924 -118 c120 -25 249
-73 333 -123 77 -45 205 -162 248 -227 l21 -30 -29 27 c-16 15 -41 39 -55 52
-15 14 -30 22 -35 18 -4 -4 -4 -1 0 6 4 7 1 12 -8 12 -8 0 -21 8 -28 18 -20
27 -113 102 -126 102 -7 0 -12 4 -12 8 0 16 -274 116 -348 127 -21 3 -50 9
-67 14 l-30 9 32 1 c17 1 64 -6 104 -14z m-174 -164 c23 -19 45 -41 48 -50 5
-12 2 -12 -13 2 -10 9 -21 17 -24 17 -4 0 -32 25 -65 56 -61 60 -31 46 54 -25z
m-3887 -14 c0 -2 -10 -12 -22 -23 l-23 -19 19 23 c18 21 26 27 26 19z m4124
-163 c67 -48 126 -91 131 -97 20 -20 -41 17 -80 48 -62 49 -162 115 -168 109
-2 -3 -7 2 -10 11 -4 8 -4 15 0 15 3 0 61 -39 127 -86z m591 -127 c21 -37 36
-70 34 -72 -2 -2 -24 34 -48 78 -23 45 -38 78 -33 72 6 -5 27 -41 47 -78z
m-313 -19 c-7 -7 -12 -8 -12 -2 0 14 12 26 19 19 2 -3 -1 -11 -7 -17z m384
-153 c15 -47 24 -88 22 -91 -3 -3 -11 16 -17 41 -6 25 -15 44 -19 41 -4 -2 -8
7 -8 20 -1 13 -5 35 -8 49 -4 14 -4 25 -2 25 3 0 17 -38 32 -85z m-383 -112
c-7 -2 -19 -2 -25 0 -7 3 -2 5 12 5 14 0 19 -2 13 -5z m347 -5 c0 -8 3 -9 8
-3 10 14 58 12 73 -2 10 -11 -17 -13 -140 -13 -112 0 -150 3 -145 12 5 7 3 8
-7 2 -23 -14 -119 -12 -119 3 0 10 35 13 165 13 125 0 165 -3 165 -12z m77
-80 c-3 -8 -6 -5 -6 6 -1 11 2 17 5 13 3 -3 4 -12 1 -19z m3 -87 c5 -30 11
-74 12 -100 l1 -46 7 55 c6 48 7 43 8 -40 0 -184 -3 -169 57 -232 46 -48 61
-58 88 -58 73 0 147 88 147 175 0 56 15 48 47 -24 23 -53 42 -77 82 -110 36
-28 47 -41 34 -41 -53 0 -93 -22 -118 -64 -14 -23 -25 -53 -25 -66 0 -61 95
-181 155 -196 33 -8 113 4 122 19 4 6 10 43 13 82 l6 70 17 -37 c9 -21 17 -55
17 -77 0 -46 18 -61 74 -61 24 0 39 6 50 21 14 21 16 21 41 5 20 -13 37 -15
70 -10 25 3 45 4 45 2 0 -2 -16 -20 -36 -39 -19 -19 -32 -26 -29 -16 5 11 2
17 -7 17 -28 0 -76 -21 -82 -36 -4 -10 -23 -14 -65 -14 l-61 0 -2 -170 c-2
-104 -7 -170 -13 -171 -16 -1 -24 48 -31 201 l-6 145 -73 0 c-68 0 -76 2 -104
29 -17 16 -28 32 -26 37 3 4 -11 30 -30 59 -19 29 -35 49 -35 46 0 -14 -42 37
-45 56 -3 11 -7 23 -11 27 -4 3 -4 -9 -1 -26 4 -18 5 -33 3 -33 -2 0 -24 27
-50 59 -30 39 -44 65 -40 76 5 13 8 14 15 3 5 -8 9 -9 9 -2 0 17 -22 30 -57
33 -36 3 -40 -1 -20 -21 7 -7 50 -57 96 -111 46 -54 88 -94 93 -90 7 3 8 1 4
-5 -4 -7 13 -34 42 -64 47 -52 159 -202 180 -244 6 -12 11 -34 10 -50 0 -16 2
-40 6 -54 5 -21 -2 -17 -44 25 -28 28 -87 93 -132 145 -45 52 -145 166 -222
253 -76 86 -146 167 -155 180 -14 21 -14 21 4 7 19 -15 19 -14 4 10 -9 14 -21
25 -27 25 -6 0 -14 4 -19 9 -5 5 -2 6 6 1 10 -6 12 -2 6 16 -4 13 -13 30 -19
38 -9 12 -8 13 3 7 10 -7 11 -3 5 15 -4 13 -6 60 -3 104 5 121 1 251 -10 292
-6 22 -7 33 -1 27 5 -5 14 -34 20 -63z m18 4 c0 -16 -2 -15 -8 5 -4 14 -8 34
-8 45 0 16 2 15 8 -5 4 -14 8 -34 8 -45z m-5523 -346 c17 -32 75 -74 118 -85
22 -5 34 -1 54 17 14 13 23 18 19 12 -4 -8 -1 -13 9 -13 9 0 13 5 10 10 -3 6
-1 10 5 10 30 0 -60 -141 -147 -229 -29 -29 -53 -57 -53 -60 0 -4 -10 -13 -21
-21 -12 -8 -27 -20 -34 -27 -6 -6 -20 -11 -30 -10 -10 1 -20 -5 -23 -13 -5
-13 -3 -13 13 0 18 14 18 14 0 -14 -11 -16 -21 -24 -23 -17 -2 6 -8 11 -13 11
-6 0 -8 -4 -5 -8 3 -5 -1 -9 -9 -9 -8 0 22 41 66 91 137 156 168 188 180 180
8 -5 9 -3 4 5 -4 8 4 24 21 42 l27 29 -49 -1 c-27 -1 -62 4 -77 10 -15 6 -33
10 -40 8 -15 -3 -47 61 -47 96 0 15 -4 27 -9 27 -6 0 -17 -12 -26 -27 -9 -16
-32 -39 -50 -53 -18 -14 -31 -28 -28 -32 2 -5 -6 -8 -19 -8 l-23 1 25 20 c62
50 98 92 120 140 l25 52 7 -52 c5 -28 15 -65 23 -82z m2055 85 c0 -8 -4 -12
-10 -9 -5 3 -10 10 -10 16 0 5 5 9 10 9 6 0 10 -7 10 -16z m-2035 -194 c3 -5
2 -10 -4 -10 -5 0 -13 5 -16 10 -3 6 -2 10 4 10 5 0 13 -4 16 -10z m-343 -206
c3 -50 9 -70 23 -80 25 -19 95 -18 123 2 12 8 22 13 22 10 0 -28 -150 -62
-150 -34 0 8 -5 6 -11 -4 -11 -19 -39 -25 -39 -8 0 6 -3 9 -7 9 -5 -1 -17 -1
-28 0 -19 2 -18 3 3 11 15 6 22 18 22 35 0 14 4 25 10 25 5 0 7 7 4 15 -8 19
4 85 15 85 5 0 11 -30 13 -66z m6146 11 c-3 -3 -9 2 -12 12 -6 14 -5 15 5 6 7
-7 10 -15 7 -18z m-5769 -62 c-30 -32 -70 -77 -88 -100 -19 -23 -38 -40 -44
-36 -6 3 -7 2 -4 -3 3 -5 -3 -20 -12 -33 l-18 -23 4 33 c2 19 4 41 5 50 1 9 8
14 16 12 7 -3 12 -1 10 4 -2 6 6 19 17 29 12 11 14 15 5 10 -13 -9 -13 -8 0 6
8 9 22 18 30 20 8 2 19 12 25 23 6 11 18 20 27 20 9 0 20 4 25 9 5 5 2 6 -7 1
-13 -8 -13 -6 -1 8 7 9 16 15 20 13 4 -3 13 -1 21 5 28 17 23 9 -31 -48z
m-543 -28 c13 -14 35 -26 51 -26 22 -1 23 -3 7 -6 -12 -2 -39 3 -59 11 -20 9
-41 13 -46 10 -13 -8 -11 10 3 24 16 16 17 16 44 -13z m-83 -12 c-13 -2 -35
-2 -50 0 -16 2 -5 4 22 4 28 0 40 -2 28 -4z m1957 -596 c0 -2 -10 -12 -22 -23
l-23 -19 19 23 c18 21 26 27 26 19z m5150 -96 c0 -2 -9 4 -21 15 -12 10 -23
18 -25 17 -2 -2 -3 -1 -1 1 1 3 -9 17 -23 33 -13 15 -3 8 23 -17 26 -24 47
-46 47 -49z m-5213 21 c-18 -19 -23 -37 -9 -28 5 3 9 -1 9 -9 0 -8 -5 -15 -10
-15 -5 0 -4 -7 3 -15 7 -8 16 -13 20 -10 5 3 11 1 15 -4 3 -5 -2 -14 -11 -19
-9 -5 -15 -12 -15 -16 1 -3 -6 -17 -15 -31 -28 -43 -62 -137 -56 -154 4 -10 9
0 14 28 10 60 88 191 88 147 0 -8 9 -17 20 -21 11 -3 24 -21 30 -38 l10 -32
-5 34 c-3 19 -14 43 -25 53 -26 25 -16 50 15 38 13 -5 25 -7 27 -5 2 2 5 -5 5
-17 2 -18 39 -63 53 -63 3 0 15 -10 28 -22 23 -24 47 -29 57 -13 3 6 12 10 19
10 10 0 11 -12 6 -46 -5 -35 -4 -47 7 -51 11 -4 6 -15 -20 -42 -47 -50 -88
-107 -81 -113 3 -3 0 -9 -7 -14 -8 -5 -10 -3 -5 7 4 8 1 6 -8 -5 -10 -13 -12
-25 -6 -41 5 -14 5 -26 -1 -32 -13 -13 -19 -64 -8 -57 5 3 9 -2 9 -11 0 -9 -4
-13 -10 -10 -5 3 -10 2 -10 -4 0 -5 5 -13 11 -17 8 -4 8 -9 0 -17 -12 -12 -15
-31 -3 -24 9 6 9 -90 0 -99 -4 -3 -2 -17 3 -31 6 -18 6 -30 -2 -40 -9 -10 -9
-17 -2 -24 7 -7 8 -22 4 -38 -11 -37 -4 -56 16 -39 8 7 21 13 29 14 10 2 10
-3 -3 -22 -8 -13 -22 -24 -30 -24 -9 0 -13 -6 -10 -15 4 -8 1 -17 -5 -21 -7
-5 -8 -2 -3 6 5 8 4 11 -3 6 -6 -4 -9 -12 -6 -19 3 -8 -6 -25 -20 -40 -13 -14
-21 -28 -18 -31 3 -3 0 -6 -7 -6 -7 0 -9 -4 -6 -10 3 -5 -3 -10 -14 -10 -12 0
-21 -5 -21 -10 0 -23 -39 11 -45 40 -4 16 -11 33 -17 36 -6 4 -9 3 -6 -2 3 -5
11 -28 17 -51 11 -42 13 -43 52 -43 37 0 48 -7 154 -109 122 -117 210 -175
290 -190 131 -24 311 42 442 164 39 36 78 65 87 65 28 0 90 -36 141 -83 43
-38 49 -49 49 -84 l1 -41 28 20 c16 11 31 26 34 34 8 22 -24 116 -73 214 -36
72 -62 108 -122 167 -62 62 -70 73 -42 58 83 -42 221 -170 255 -235 17 -33 17
-115 0 -170 -7 -22 -3 -21 33 14 41 39 41 39 83 27 24 -7 86 -40 138 -73 125
-79 227 -128 268 -128 17 0 35 -4 38 -10 3 -5 0 -10 -8 -10 -7 0 -56 -21 -108
-46 -171 -84 -272 -125 -451 -185 -248 -83 -351 -99 -636 -99 -276 0 -548 14
-702 36 -157 23 -172 30 -75 38 163 13 217 26 370 94 77 35 161 83 259 152
l79 55 -39 8 c-21 5 -404 12 -850 15 l-812 7 60 75 c33 41 81 99 107 129 25
29 57 70 71 90 140 204 345 480 428 578 32 37 87 106 123 153 212 277 340 440
346 440 3 0 -1 -8 -10 -18z m5507 -304 c-6 -9 -34 1 -34 14 0 5 -5 6 -10 3 -6
-4 -9 -3 -8 2 3 9 -30 59 -37 56 -3 -2 -5 -1 -5 2 1 8 -24 33 -30 32 -3 -1 -6
3 -8 8 -7 21 -34 43 -47 39 -7 -3 -16 -1 -20 5 -4 7 1 8 12 4 14 -5 13 -1 -6
20 -14 15 -30 26 -36 25 -11 -3 -15 3 -15 23 0 6 56 -42 124 -107 69 -65 123
-121 120 -126z m-6626 95 c0 -16 -3 -32 -6 -38 -8 -13 -20 35 -14 57 6 26 19
13 20 -19z m6163 -130 c-4 -28 -6 -32 -9 -15 -3 22 3 52 11 52 1 0 1 -17 -2
-37z m-3869 -572 c141 -84 449 -289 563 -375 148 -112 340 -310 535 -552 100
-124 222 -258 277 -302 55 -46 65 -62 37 -62 -10 0 -14 -5 -10 -15 5 -14 2
-14 -23 -1 -38 20 -158 149 -278 299 -327 408 -505 569 -1060 953 -92 64 -172
121 -178 127 -9 9 69 -31 137 -72z m3429 -298 c-5 -10 -35 -45 -67 -78 -64
-68 -54 -49 21 38 52 60 62 68 46 40z m-5 -75 c-52 -73 -70 -114 -74 -168 -3
-42 0 -60 11 -72 9 -8 19 -33 23 -54 3 -21 13 -51 20 -65 17 -35 76 -62 115
-54 38 9 86 49 105 89 l14 31 -4 -45 c-3 -25 -14 -67 -24 -95 -11 -27 -24 -63
-29 -80 -5 -16 -15 -29 -22 -27 -7 1 -11 -5 -9 -15 2 -11 12 -17 24 -16 26 3
28 -24 2 -30 -11 -3 -16 -1 -11 6 4 7 0 8 -11 4 -10 -4 -22 -7 -27 -7 -6 0 -7
-4 -4 -10 3 -6 -4 -10 -17 -10 -18 0 -20 2 -8 10 10 7 11 10 2 10 -7 0 0 14
15 31 16 17 41 54 57 82 29 50 29 51 5 32 -13 -10 -50 -44 -81 -74 -32 -30
-59 -53 -61 -50 -2 2 -18 40 -35 84 -17 44 -47 111 -67 149 -20 38 -34 74 -31
80 2 6 5 3 5 -7 1 -10 5 -16 9 -13 5 3 8 19 7 35 -1 17 2 28 7 25 4 -3 5 2 2
10 -3 9 -10 14 -14 11 -4 -2 -3 16 1 41 10 55 60 150 77 147 6 -2 16 6 22 17
6 11 13 20 17 20 3 0 -2 -10 -11 -22z m-359 -500 c-2 -13 -4 -3 -4 22 0 25 2
35 4 23 2 -13 2 -33 0 -45z m93 -92 c0 -2 -7 -6 -15 -10 -8 -3 -15 -1 -15 4 0
6 7 10 15 10 8 0 15 -2 15 -4z m-35 -29 c40 -4 40 -4 -7 -5 l-48 -2 0 -100 c0
-94 8 -119 27 -86 4 8 36 39 71 70 49 44 70 56 95 56 74 -1 69 -12 -73 -155
-155 -157 -237 -228 -252 -218 -6 3 -8 2 -5 -3 3 -6 -3 -15 -13 -22 -20 -12
-36 0 -25 18 3 6 1 10 -5 10 -7 0 -7 7 1 22 10 19 8 25 -20 49 -27 22 -29 27
-16 33 9 3 21 4 26 0 5 -3 17 0 26 6 14 9 14 10 2 7 -9 -3 -16 1 -16 8 0 11 5
11 28 0 26 -14 28 -13 68 30 23 25 41 50 41 57 2 74 12 154 20 156 6 2 10 16
10 32 0 36 11 65 19 52 3 -6 24 -12 46 -15z m382 -51 c12 -23 31 -80 44 -126
25 -94 41 -114 99 -130 61 -16 83 -10 93 26 l9 32 34 -20 c24 -14 54 -20 104
-21 38 -1 70 -4 70 -7 0 -3 -19 -17 -43 -32 -24 -15 -59 -43 -79 -63 -25 -26
-38 -33 -44 -24 -4 7 -3 10 3 6 6 -4 13 -1 16 6 3 7 -5 13 -19 13 -13 1 -22
-2 -19 -7 3 -4 -8 -15 -26 -24 -19 -10 -28 -12 -24 -5 5 8 3 11 -6 8 -8 -3
-13 -11 -11 -17 1 -7 -2 -10 -8 -6 -6 3 -8 10 -5 14 5 10 -19 32 -60 55 -16
10 -21 14 -10 10 11 -3 36 -10 55 -15 19 -4 36 -12 38 -17 2 -6 12 -8 22 -5
11 3 17 10 14 15 -3 5 -12 7 -20 4 -7 -3 -16 0 -20 5 -4 7 11 9 44 5 37 -4 53
-2 62 9 10 13 8 15 -13 15 -19 0 -25 4 -21 15 4 10 0 15 -11 15 -9 0 -13 -4
-10 -10 3 -5 -2 -10 -12 -11 -16 0 -16 -1 2 -8 16 -7 11 -9 -21 -12 -23 -3
-55 1 -70 8 -37 15 -74 16 -74 2 0 -6 25 -61 55 -123 57 -116 150 -247 380
-531 66 -82 167 -211 223 -286 57 -75 152 -196 212 -270 l110 -134 -308 -3
c-381 -3 -812 11 -822 28 -5 7 -17 9 -31 5 -16 -4 -20 -3 -11 3 18 12 -49 26
-81 17 -15 -4 -18 -3 -8 3 9 7 -2 13 -40 22 -30 7 -67 19 -83 27 -45 23 -125
45 -138 37 -6 -4 -8 -3 -5 3 7 12 -47 35 -57 26 -3 -4 -6 0 -6 7 0 7 -3 11 -6
7 -9 -8 -144 61 -144 74 0 5 -5 7 -12 3 -7 -5 -9 -2 -5 8 4 12 -7 22 -44 37
-27 12 -49 24 -49 27 0 3 5 2 10 -1 6 -3 10 -4 10 -2 0 2 -33 26 -72 53 -103
69 -155 120 -63 60 39 -25 102 -64 140 -87 39 -23 74 -48 78 -56 8 -13 45 -32
72 -38 6 -2 46 -20 90 -41 44 -21 82 -39 85 -40 3 0 12 -3 20 -6 58 -21 233
-68 270 -73 88 -11 106 -14 165 -24 36 -7 228 -11 485 -11 l424 0 -40 43 c-76
80 -188 224 -234 302 -30 50 -117 161 -197 251 -70 78 -216 263 -267 339 -67
100 -104 179 -110 234 -3 30 -13 68 -22 85 -8 17 -21 56 -29 86 -7 30 -24 93
-38 140 -34 120 -39 150 -23 144 7 -3 22 -24 33 -48z m-3419 -53 c-23 -32 -94
-128 -156 -213 -63 -85 -118 -159 -122 -164 -12 -12 -38 15 -32 33 3 10 0 12
-11 8 -9 -3 -19 -1 -23 5 -4 6 -3 8 4 5 6 -5 8 0 5 12 -4 17 -7 16 -33 -10
-16 -17 -30 -25 -33 -19 -3 6 -4 5 -3 -2 2 -7 17 -13 34 -13 16 0 28 -3 26 -6
-6 -11 86 -46 191 -73 276 -70 585 -77 910 -21 l80 14 28 -32 29 -32 -21 36
-21 37 37 7 c21 4 49 9 63 11 59 11 255 82 334 121 95 48 111 56 116 63 7 9
124 37 185 45 52 7 127 38 145 60 6 8 19 11 27 8 9 -4 21 0 27 9 12 16 76 41
84 33 3 -2 11 3 18 13 9 11 13 13 14 4 0 -9 7 -11 21 -7 12 4 31 8 43 9 11 2
32 8 44 15 42 22 93 30 224 35 32 1 60 5 63 8 3 3 19 4 35 2 16 -2 41 1 55 6
15 6 24 6 21 2 -8 -13 25 -8 54 8 29 15 -98 -120 -215 -231 -110 -103 -284
-230 -512 -372 -69 -44 -293 -153 -388 -190 -302 -117 -650 -187 -933 -187
l-99 0 -14 48 c-12 42 -14 58 -10 93 1 6 8 9 15 6 10 -4 13 -1 9 9 -3 7 0 14
6 14 6 0 11 -4 11 -10 0 -5 7 -10 16 -10 9 0 14 6 12 13 -3 8 -44 14 -129 19
-166 10 -295 30 -496 77 -202 47 -265 69 -269 94 -4 28 -14 34 -14 9 0 -21 -1
-21 -81 8 -167 62 -494 249 -624 358 -66 55 -189 174 -175 170 8 -3 25 -1 37
3 14 5 25 4 29 -2 3 -6 12 -8 19 -5 7 2 18 -1 24 -7 8 -8 14 -9 19 -1 8 12 92
14 92 2 0 -5 5 -6 11 -3 5 4 27 9 47 11 38 4 74 -16 84 -48 4 -10 10 -10 31
-1 30 14 83 -5 239 -83 49 -25 111 -53 138 -64 28 -11 73 -29 101 -40 28 -11
48 -16 44 -10 -3 5 0 10 7 10 8 1 5 7 -7 16 -19 14 -19 15 3 20 12 4 22 11 22
16 0 5 5 6 10 3 6 -3 10 -1 10 5 0 6 4 9 9 6 4 -3 37 14 72 39 34 24 66 42 70
39 4 -2 9 3 13 11 3 8 16 15 28 15 19 0 20 2 8 10 -10 6 -11 10 -2 10 6 0 14
0 17 0 2 0 19 14 37 31 18 16 62 43 98 60 35 16 73 37 82 46 10 9 18 13 18 10
0 -3 12 1 28 9 15 7 28 14 30 14 1 0 -17 -26 -40 -57z m1355 -29 c31 -5 129
-55 151 -76 20 -18 20 -18 0 -32 -17 -13 -24 -12 -66 11 -49 27 -171 133 -130
113 13 -6 33 -13 45 -16z m371 -88 c-7 -18 -95 -56 -130 -56 -22 0 -28 15 -6
15 4 0 13 4 20 9 7 4 20 5 28 2 9 -3 12 -1 9 4 -6 10 7 14 33 11 6 -1 12 2 12
8 0 5 8 12 18 14 9 3 18 5 19 6 1 0 0 -5 -3 -13z m-4413 -42 c-5 -21 -9 -30
-10 -19 -1 24 10 67 15 62 3 -2 0 -22 -5 -43z m-374 -9 c-15 -14 -36 -25 -45
-25 -9 1 -3 7 14 14 18 8 35 19 38 25 4 6 10 11 14 11 4 0 -6 -12 -21 -25z
m317 -52 c-12 -91 -6 -281 12 -341 8 -29 12 -62 9 -72 -7 -21 5 -32 24 -21 10
7 11 13 1 30 -6 12 -9 27 -6 34 2 7 5 5 5 -5 1 -24 46 -74 79 -87 16 -7 29
-18 29 -26 0 -10 -17 -3 -49 20 -26 19 -48 33 -48 30 0 -3 10 -25 21 -48 26
-50 66 -104 128 -172 32 -35 35 -40 10 -17 -19 18 -38 30 -41 27 -4 -4 -67 60
-97 101 -21 26 -31 55 -25 66 4 7 3 8 -4 4 -7 -4 -12 0 -13 11 0 10 -3 13 -5
6 -8 -19 41 -105 106 -187 64 -81 76 -101 35 -60 -21 21 -29 23 -40 14 -8 -7
-12 -16 -9 -22 4 -5 11 -5 18 1 16 14 29 2 16 -14 -6 -8 -6 -12 3 -13 30 -2
48 -9 60 -22 10 -12 9 -12 -3 -3 -13 10 -19 8 -30 -10 -11 -19 -11 -20 1 -10
11 9 19 9 35 0 37 -21 108 -87 93 -87 -8 0 -26 11 -41 25 -31 29 -58 35 -37 8
8 -10 -14 4 -48 30 -35 27 -63 52 -63 58 0 5 -3 8 -7 7 -5 -1 -19 3 -33 9 -49
21 -108 30 -126 20 -12 -7 -15 -6 -9 3 6 9 0 12 -22 8 -26 -4 -29 -2 -25 16 5
18 3 19 -10 8 -14 -11 -16 -11 -14 3 2 17 10 17 44 2 33 -15 76 9 80 46 2 15
7 27 12 27 5 0 0 33 -11 73 -28 99 -46 244 -43 352 2 81 7 114 30 208 11 47
16 29 8 -30z m5833 23 c44 -41 117 -75 169 -80 27 -2 51 -4 53 -5 2 -1 -2 -8
-9 -16 -15 -19 -50 -19 -117 -2 -30 8 -51 10 -50 4 5 -22 -23 -15 -73 20 -49
35 -64 60 -32 56 8 0 11 5 8 14 -5 11 -2 13 10 9 12 -4 15 -2 10 9 -8 21 1 19
31 -9z m-6259 -3 c-15 -2 -42 -2 -60 0 -18 2 -6 4 27 4 33 0 48 -2 33 -4z
m469 -35 c-3 -7 -5 -2 -5 12 0 14 2 19 5 13 2 -7 2 -19 0 -25z m-13 -62 c-3
-14 -10 -24 -14 -21 -5 3 -3 16 3 29 15 31 20 27 11 -8z m5881 -35 l20 -24
-27 18 c-15 9 -25 21 -22 27 3 5 7 8 8 6 0 -2 10 -14 21 -27z m-5908 -43 c-3
-7 -5 -2 -5 12 0 14 2 19 5 13 2 -7 2 -19 0 -25z m-70 -95 c-2 -21 -4 -4 -4
37 0 41 2 58 4 38 2 -21 2 -55 0 -75z m90 30 c-2 -16 -4 -3 -4 27 0 30 2 43 4
28 2 -16 2 -40 0 -55z m-268 -55 c-7 -13 -23 -38 -37 -55 -13 -18 -22 -33 -19
-33 4 0 -5 -11 -19 -25 -14 -14 -22 -30 -18 -37 5 -7 3 -8 -5 -4 -8 6 -11 2
-9 -10 2 -12 -2 -18 -11 -16 -8 2 -11 -3 -8 -13 7 -16 -8 -21 -18 -6 -4 8 143
220 153 221 1 0 -3 -10 -9 -22z m278 -65 c-3 -10 -5 -4 -5 12 0 17 2 24 5 18
2 -7 2 -21 0 -30z m5567 15 c22 -7 45 -18 49 -25 4 -7 14 -13 21 -13 25 0 75
-69 92 -126 16 -56 14 -112 -8 -199 -10 -44 -56 -120 -66 -111 -9 9 -62 -46
-55 -57 3 -6 1 -7 -5 -3 -6 3 -20 -7 -31 -22 -38 -54 -234 -118 -255 -83 -5 7
1 11 16 11 40 0 146 58 191 104 55 56 137 216 144 279 3 25 3 61 -1 81 -8 44
-85 131 -131 147 -19 7 -32 16 -29 21 7 11 19 10 68 -4z m673 -38 c6 -8 14
-12 18 -8 4 4 23 -14 43 -40 20 -26 57 -74 83 -107 57 -74 113 -164 106 -171
-6 -6 -17 5 -105 116 -33 41 -87 99 -121 128 -34 30 -59 58 -56 63 4 5 3 9 -2
9 -4 0 -8 11 -8 24 0 20 3 22 15 13 8 -7 20 -19 27 -27z m-6700 -191 c-24 -35
-46 -62 -48 -59 -12 14 -152 -157 -142 -173 3 -5 1 -7 -4 -4 -6 4 -23 -9 -37
-27 -28 -38 -33 -51 -13 -40 7 4 9 3 4 -2 -5 -5 -14 -9 -20 -9 -7 -1 -11 -6
-9 -13 1 -7 -2 -11 -6 -10 -5 2 -19 -8 -33 -22 -33 -36 -22 -20 135 183 76 97
141 175 146 172 4 -3 14 3 21 13 13 15 12 16 -3 3 -26 -20 -22 -5 9 35 16 22
30 31 35 26 6 -6 -7 -34 -35 -73z m6061 -56 c-11 -15 -10 -16 7 -10 20 7 20 7
1 -8 -11 -8 -16 -15 -10 -15 5 0 1 -5 -9 -11 -9 -6 -15 -14 -12 -19 10 -16
-43 -23 -103 -12 l-57 9 48 2 c26 0 61 8 77 16 30 16 59 59 61 92 1 12 3 11 6
-5 3 -13 -1 -30 -9 -39z m-457 -6 c-10 -9 -11 -8 -5 6 3 10 9 15 12 12 3 -3 0
-11 -7 -18z m-2196 -16 c-3 -5 3 -16 13 -23 21 -14 56 -77 49 -85 -6 -6 -299
15 -306 22 -2 3 1 5 8 5 7 0 19 7 28 16 11 11 19 12 26 5 16 -16 47 -13 53 4
4 8 16 15 29 15 19 0 22 4 19 23 l-5 22 10 -22 c13 -28 12 -28 45 2 27 25 42
33 31 16z m-3247 -38 c16 -15 47 -17 72 -3 14 7 19 5 23 -10 3 -13 0 -20 -8
-20 -7 0 -21 -3 -31 -7 -12 -4 -15 -3 -10 5 9 16 5 15 -34 -4 -27 -14 -34 -14
-42 -3 -7 11 -11 11 -15 2 -2 -7 -9 -13 -14 -13 -6 0 -8 4 -4 9 3 5 0 13 -6
17 -8 4 -9 3 -5 -4 4 -7 4 -12 -1 -13 -78 -6 -102 -18 -183 -93 l-55 -51 58
61 c39 41 83 74 138 102 83 43 94 46 117 25z m710 -48 c-3 -3 -9 2 -12 12 -6
14 -5 15 5 6 7 -7 10 -15 7 -18z m2292 19 c0 -8 -19 -13 -24 -6 -3 5 1 9 9 9
8 0 15 -2 15 -3z m-2920 -34 c0 -5 -4 -10 -10 -10 -5 0 -10 5 -10 10 0 6 5 10
10 10 6 0 10 -4 10 -10z m715 -45 c17 -23 21 -33 9 -23 -10 9 -28 32 -38 50
-22 39 -11 29 29 -27z m-815 38 c-8 -3 -23 -12 -32 -20 -18 -16 -43 -9 -32 9
4 7 2 8 -4 4 -6 -4 -9 -12 -6 -20 5 -14 -71 -53 -93 -48 -7 2 -12 -3 -11 -10
2 -8 -5 -12 -17 -10 -28 5 -31 10 -15 25 10 10 11 9 5 -3 -5 -8 3 -3 18 13 31
32 37 34 32 7 -2 -12 0 -18 6 -15 5 4 7 10 4 15 -5 9 38 43 65 52 21 7 98 8
80 1z m5382 -22 c-9 -14 -22 -34 -30 -43 -8 -10 -12 -18 -8 -18 4 0 1 -7 -6
-15 -31 -34 -36 -43 -31 -49 4 -3 1 -6 -5 -6 -7 0 -12 3 -12 6 0 16 86 151 97
151 7 0 6 -9 -5 -26z m-5263 5 c9 -11 6 -12 -15 -8 -19 3 -22 7 -12 13 16 11
14 11 27 -5z m-96 -3 c-7 -2 -21 -2 -30 0 -10 3 -4 5 12 5 17 0 24 -2 18 -5z
m853 -95 l29 -33 -32 29 c-31 28 -38 36 -30 36 2 0 16 -15 33 -32z m5563 -90
c80 -42 168 -35 210 16 7 9 17 13 22 10 5 -3 6 3 2 12 -5 13 -3 15 7 9 8 -5
11 -4 7 3 -9 14 3 43 14 36 5 -3 9 1 9 8 0 7 8 4 21 -8 19 -20 20 -24 6 -50
-8 -16 -12 -34 -10 -41 2 -6 -11 -22 -29 -36 -102 -75 -259 -60 -365 37 -42
38 -51 78 -24 110 11 13 17 9 44 -31 22 -32 49 -56 86 -75z m-6349 -20 c42
-17 43 -18 10 -13 -29 5 -32 4 -17 -6 11 -6 31 -9 47 -7 17 3 26 0 24 -7 -6
-14 -43 -12 -72 4 -13 7 -20 17 -15 24 5 9 2 8 -9 -1 -12 -10 -18 -10 -27 2
-7 8 -14 21 -15 28 -1 7 -4 18 -7 23 -4 6 -9 24 -13 40 -5 24 -1 20 21 -20 22
-39 37 -53 73 -67z m510 65 c0 -8 -38 17 -51 33 -9 11 -2 9 19 -6 17 -13 32
-25 32 -27z m4671 -40 c-18 -30 -69 -75 -79 -69 -11 7 -35 -18 -26 -26 3 -3 0
-9 -7 -14 -8 -5 -10 -3 -4 6 6 10 4 12 -11 6 -10 -4 -1 8 21 26 22 18 44 32
50 30 5 -2 7 0 2 4 -9 9 32 54 50 54 10 0 11 -4 4 -17z m-5764 -31 c-8 -9 -23
-31 -31 -47 -9 -17 -16 -24 -16 -16 0 15 47 81 57 81 3 0 -1 -8 -10 -18z m230
-64 c-3 -8 -6 -5 -6 6 -1 11 2 17 5 13 3 -3 4 -12 1 -19z m7107 -27 c6 -15 6
-25 -2 -33 -9 -9 -12 -7 -12 9 0 20 -30 33 -110 47 -14 2 6 3 44 2 61 -2 71
-6 80 -25z m-7397 2 c0 -10 -7 -27 -16 -37 -15 -18 -15 -19 2 -13 22 8 22 4
-3 -18 -18 -16 -20 -16 -15 -2 5 13 2 15 -15 12 -18 -3 -20 -2 -10 10 7 8 17
13 23 12 7 -1 11 4 9 12 -1 7 3 19 9 27 15 18 16 18 16 -3z m440 11 c-3 -3
-12 -4 -19 -1 -8 3 -5 6 6 6 11 1 17 -2 13 -5z m4346 -43 c-4 -9 -13 -25 -22
-35 -9 -11 -10 -16 -4 -12 9 5 11 2 7 -8 -3 -9 -10 -16 -16 -16 -5 0 -6 -5 -2
-12 5 -7 3 -8 -6 -3 -10 6 -12 4 -7 -8 3 -10 2 -17 -4 -17 -6 0 -7 -5 -3 -12
5 -7 3 -8 -6 -3 -10 6 -12 4 -6 -11 4 -10 4 -15 0 -11 -4 4 -13 2 -21 -4 -7
-6 -13 -8 -13 -3 0 11 -20 -18 -20 -28 0 -12 24 -4 38 12 8 9 7 2 -3 -17 -8
-18 -21 -33 -27 -33 -6 0 -8 -3 -5 -6 3 -4 1 -16 -5 -28 -16 -31 -120 -190
-127 -196 -4 -3 -18 -21 -31 -40 -13 -19 -33 -43 -44 -53 -12 -10 -15 -16 -8
-12 17 9 15 3 -13 -35 -29 -39 -31 -50 -9 -50 9 0 12 5 8 12 -5 7 -3 8 6 3 10
-6 12 -4 7 8 -4 10 -2 16 6 14 7 -1 11 4 9 11 -1 8 2 11 7 7 10 -6 37 34 33
48 -1 5 2 5 8 2 7 -4 3 -18 -13 -38 -13 -18 -45 -63 -72 -102 -59 -85 -69 -96
-59 -70 7 18 6 19 -12 5 -13 -10 -10 -3 8 20 15 19 31 34 36 33 5 -1 10 10 10
24 l0 27 -19 -23 c-11 -13 -19 -21 -19 -18 0 21 103 193 130 217 19 18 58 79
53 84 -4 3 -2 6 4 6 5 0 15 12 21 26 7 14 16 23 20 20 5 -3 8 8 7 24 -1 16 2
27 7 24 4 -3 11 2 14 10 3 9 10 13 15 10 8 -5 13 10 10 29 -1 4 6 10 14 13 8
4 15 10 15 16 0 5 -4 7 -9 3 -20 -12 -21 16 -1 52 11 21 18 28 15 16 -4 -13
-4 -23 -1 -23 5 0 24 38 66 138 15 34 26 49 31 41 4 -7 5 -19 2 -28z m1778 15
c54 -30 200 -76 237 -75 60 1 66 16 7 17 -58 1 -173 32 -167 45 1 4 4 7 7 7 3
0 14 0 26 0 11 0 18 -4 15 -8 -7 -12 266 -12 280 -1 6 5 21 6 34 4 13 -3 27
-1 30 3 3 5 16 6 29 2 24 -5 23 -7 -20 -43 -109 -89 -222 -103 -386 -49 -75
25 -191 76 -130 58 11 -4 16 -2 11 5 -3 6 -15 9 -25 6 -11 -3 -17 -2 -14 3 3
4 -2 11 -11 14 -8 3 -12 2 -9 -4 4 -6 -5 -5 -19 2 -31 14 -30 15 12 21 19 3
36 8 40 11 7 8 4 9 53 -18z m-3512 -126 c1 -9 37 -69 81 -134 44 -66 78 -122
75 -124 -3 -3 2 -16 10 -29 9 -13 13 -23 10 -23 -10 0 -128 185 -166 262 -43
84 -70 153 -68 172 1 15 57 -105 58 -124z m1781 85 c-6 -8 -8 -20 -4 -27 5 -8
1 -8 -11 2 -17 14 -18 14 -7 -6 9 -18 6 -29 -18 -68 -17 -26 -30 -52 -31 -59
0 -7 -4 -3 -8 8 -7 17 -10 13 -20 -22 -6 -23 -18 -49 -26 -57 -8 -8 -15 -19
-15 -24 0 -5 -9 -17 -20 -27 -11 -10 -20 -23 -20 -30 0 -6 -7 -20 -15 -30 -9
-11 -27 -36 -42 -55 -38 -52 -20 -9 25 58 42 62 124 208 160 285 12 26 26 47
32 47 5 0 13 12 17 28 5 20 8 22 11 9 2 -10 -2 -24 -8 -32z m821 25 c-13 -11
-28 -20 -35 -20 -6 0 3 9 19 19 39 25 46 25 16 1z m-5330 -7 c13 -16 12 -17
-3 -4 -10 7 -18 15 -18 17 0 8 8 3 21 -13z m6840 -6 c-10 -9 -11 -8 -5 6 3 10
9 15 12 12 3 -3 0 -11 -7 -18z m-6381 -13 c0 -8 5 -12 10 -9 6 4 16 2 23 -3 7
-6 14 -10 17 -11 6 0 36 -9 72 -23 15 -5 51 -10 80 -10 45 0 49 -1 28 -10 -32
-12 -102 -2 -159 23 -51 22 -55 23 -45 7 4 -6 -4 -3 -17 7 -23 17 -40 63 -18
50 5 -4 9 -13 9 -21z m2942 -37 c-18 -18 -29 -37 -25 -42 5 -4 2 -5 -5 -1 -15
9 -4 27 33 58 33 28 31 20 -3 -15z m1785 27 c-3 -3 -12 -4 -19 -1 -8 3 -5 6 6
6 11 1 17 -2 13 -5z m89 -6 c4 -7 4 -10 -1 -6 -4 4 -16 3 -26 -3 -12 -6 -19
-6 -19 0 0 5 8 12 18 14 9 3 18 5 19 6 1 0 5 -5 9 -11z m-4613 -5 c-7 -2 -21
-2 -30 0 -10 3 -4 5 12 5 17 0 24 -2 18 -5z m4474 1 c-3 -3 -12 -4 -19 -1 -8
3 -5 6 6 6 11 1 17 -2 13 -5z m-5537 -8 c0 -2 -8 -10 -17 -17 -16 -13 -17 -12
-4 4 13 16 21 21 21 13z m4211 -53 c33 -54 18 -46 -19 10 -18 27 -26 44 -17
37 8 -7 24 -28 36 -47z m1237 50 c-21 -2 -55 -2 -75 0 -21 2 -4 4 37 4 41 0
58 -2 38 -4z m2340 -30 c-2 -9 -16 -17 -33 -19 -18 -2 -25 0 -17 5 8 5 13 11
13 15 -4 31 0 36 20 26 11 -6 19 -18 17 -27z m-7427 -10 c13 -16 12 -17 -3 -4
-10 7 -18 15 -18 17 0 8 8 3 21 -13z m3879 -3 c6 -11 8 -20 6 -20 -3 0 -10 9
-16 20 -6 11 -8 20 -6 20 3 0 10 -9 16 -20z m-1015 -10 c10 -11 16 -20 13 -20
-3 0 -13 9 -23 20 -10 11 -16 20 -13 20 3 0 13 -9 23 -20z m-3285 -23 c0 -2
-12 -14 -27 -28 l-28 -24 24 28 c23 25 31 32 31 24z m4760 -20 c0 -2 -21 -19
-47 -39 -79 -59 -254 -152 -353 -188 -36 -13 -71 -28 -79 -34 -12 -9 -12 -7
-2 13 8 15 40 35 85 55 106 46 338 162 361 180 18 14 35 20 35 13z m-463 -44
c-3 -10 -5 -4 -5 12 0 17 2 24 5 18 2 -7 2 -21 0 -30z m-901 -8 c1 -9 1 -15
-1 -13 -2 1 -3 6 -2 10 1 4 -7 14 -18 23 -18 15 -19 16 -1 7 11 -5 21 -17 22
-27z m2011 29 c-3 -3 -12 -4 -19 -1 -8 3 -5 6 6 6 11 1 17 -2 13 -5z m2561
-14 c12 -6 -32 -9 -137 -10 -154 0 -205 7 -78 11 37 1 67 5 67 8 0 10 129 2
148 -9z m-3951 -27 c-3 -10 -5 -4 -5 12 0 17 2 24 5 18 2 -7 2 -21 0 -30z
m3181 30 c-10 -2 -26 -2 -35 0 -10 3 -2 5 17 5 19 0 27 -2 18 -5z m267 -3 c13
-5 -27 -9 -107 -9 -75 -1 -129 3 -133 9 -8 12 211 12 240 0z m202 -6 c-3 -3
-12 -4 -19 -1 -8 3 -5 6 6 6 11 1 17 -2 13 -5z m-3340 -26 c-3 -8 -6 -5 -6 6
-1 11 2 17 5 13 3 -3 4 -12 1 -19z m-4124 -5 c-7 -2 -19 -2 -25 0 -7 3 -2 5
12 5 14 0 19 -2 13 -5z m3310 -24 c12 -6 30 -21 40 -33 10 -11 16 -15 12 -8
-10 19 46 -7 68 -32 10 -12 16 -15 12 -8 -8 16 -6 16 61 -14 59 -27 94 -51 94
-65 0 -11 -93 26 -198 79 -71 35 -89 48 -75 53 14 6 15 8 2 8 -16 1 -60 30
-46 31 5 0 18 -5 30 -11z m532 -9 c3 -5 1 -10 -4 -10 -6 0 -11 5 -11 10 0 6 2
10 4 10 3 0 8 -4 11 -10z m242 -40 c-3 -21 -17 -40 -17 -22 0 13 11 42 16 42
2 0 3 -9 1 -20z m-480 -15 c0 -8 -4 -12 -9 -9 -5 3 -6 10 -3 15 9 13 12 11 12
-6z m56 -91 c11 -13 22 -31 23 -39 2 -12 -4 -11 -25 4 -29 21 -66 61 -43 47 8
-5 12 1 13 21 1 19 3 22 6 10 3 -11 14 -30 26 -43z m371 12 c-8 -14 -30 -35
-47 -49 -37 -27 -71 -46 -43 -23 11 9 16 16 12 16 -4 0 14 18 39 40 53 46 62
50 39 16z m-197 -28 c-3 -8 -6 -5 -6 6 -1 11 2 17 5 13 3 -3 4 -12 1 -19z
m-96 -65 c12 -16 12 -17 -1 -7 -8 6 -22 14 -30 17 -13 5 -12 6 1 6 9 1 23 -7
30 -16z m93 3 c-3 -8 0 -17 7 -22 7 -4 10 -3 5 4 -3 6 -2 13 4 17 9 5 17 -80
10 -110 -4 -19 0 -439 5 -443 2 -3 8 4 11 14 10 27 64 105 89 129 11 11 27 29
35 40 8 11 24 27 35 35 18 14 19 14 7 -1 -7 -10 -15 -26 -17 -38 -2 -11 -18
-42 -36 -68 -40 -59 -152 -202 -159 -202 -3 0 -14 13 -25 29 -11 17 -68 101
-127 188 -59 86 -110 166 -114 177 -6 18 -4 17 21 -5 46 -41 184 -232 178
-247 -3 -8 -2 -13 3 -12 21 4 28 -2 14 -11 -13 -8 -13 -10 2 -10 9 0 22 -8 28
-17 8 -14 10 6 7 81 -2 54 -1 114 3 132 5 22 4 32 -2 28 -10 -6 -7 42 7 135 3
19 1 49 -4 67 -7 25 -6 34 4 38 8 3 16 0 19 -7 2 -7 4 -2 2 10 -1 12 -6 26
-11 30 -4 5 -5 3 -1 -4 3 -6 2 -14 -3 -17 -10 -7 -21 41 -14 61 3 7 9 13 14
13 4 0 6 -6 3 -14z m401 -237 c-3 -3 2 -12 10 -19 13 -11 11 -16 -15 -40 -16
-15 -36 -30 -43 -33 -21 -8 -16 21 6 40 11 10 17 12 13 6 -10 -17 2 -16 20 1
15 16 19 30 5 22 -5 -3 -11 2 -13 12 -3 11 0 19 8 19 7 0 11 -4 9 -8z m65 -53
c0 -2 -8 -10 -17 -17 -16 -13 -17 -12 -4 4 13 16 21 21 21 13z m-156 -80 c-27
-20 -9 -32 28 -18 18 6 34 9 37 6 3 -2 -4 -7 -16 -10 -12 -3 -24 -12 -27 -20
-4 -10 -14 -12 -31 -8 -20 5 -24 3 -19 -10 4 -10 1 -16 -9 -16 -21 0 -14 32 9
41 11 4 13 8 5 8 -11 1 -10 6 4 21 10 11 23 20 28 20 6 0 2 -6 -9 -14z m-37
-119 c6 -4 14 -3 18 2 3 5 14 9 25 8 10 -1 16 -5 13 -10 -3 -4 -8 -6 -11 -3
-3 3 -14 -1 -24 -11 -12 -10 -18 -12 -18 -4 0 7 -5 9 -10 6 -6 -3 -17 1 -26 9
-14 15 -14 16 3 13 10 -1 23 -6 30 -10z m43 -21 c0 -2 -8 -10 -17 -17 -16 -13
-17 -12 -4 4 13 16 21 21 21 13z m-80 -34 c0 -13 -12 -22 -22 -16 -10 6 -1 24
13 24 5 0 9 -4 9 -8z"/>
<path d="M5052 9455 c-55 -91 -182 -256 -193 -250 -5 4 -8 1 -7 -7 2 -7 -3
-12 -9 -10 -7 1 -13 -3 -13 -9 0 -5 -64 -76 -142 -157 -79 -81 -152 -158 -163
-172 -11 -14 9 5 44 42 34 38 96 93 137 124 40 30 95 78 121 106 57 60 141
124 189 144 34 14 35 14 25 -5 -6 -10 -16 -22 -23 -24 -9 -4 -8 -6 2 -6 8 -1
28 9 43 22 l28 22 -3 118 -3 118 -33 -56z"/>
<path d="M5152 9386 c3 -108 6 -131 20 -140 27 -17 34 2 10 27 -46 49 -19 46
55 -5 98 -68 385 -338 507 -478 27 -30 42 -45 34 -32 -22 33 -288 329 -344
382 -72 69 -141 155 -216 270 l-69 105 3 -129z"/>
<path d="M5082 9230 c0 -14 2 -19 5 -12 2 6 2 18 0 25 -3 6 -5 1 -5 -13z"/>
<path d="M4990 9119 c-311 -167 -470 -323 -605 -594 -72 -145 -109 -261 -130
-410 -18 -120 -19 -158 -5 -134 5 9 12 27 14 40 3 13 5 25 7 27 1 1 2 8 3 15
1 6 7 11 13 10 11 -2 51 36 52 50 1 4 3 6 6 5 6 -4 85 75 85 85 0 5 -12 -5
-26 -22 -14 -17 -30 -28 -35 -25 -5 3 -8 2 -7 -3 2 -4 0 -8 -3 -8 -12 0 -39
-28 -34 -36 3 -4 -5 -13 -17 -20 l-22 -12 18 29 c10 16 26 38 36 49 26 29 45
68 42 85 -2 11 0 12 5 3 6 -8 27 13 66 63 48 63 56 78 45 91 -15 18 -20 45 -7
37 5 -3 7 -9 4 -14 -3 -4 1 -13 9 -19 10 -9 16 -8 26 4 7 8 17 12 23 8 5 -3 7
-1 4 4 -7 12 52 100 124 184 27 31 42 56 35 56 -30 0 -77 26 -72 40 3 8 1 11
-4 8 -12 -8 -24 20 -15 34 4 7 14 3 27 -9 12 -11 26 -20 31 -20 5 0 3 -8 -4
-17 -11 -15 -11 -16 1 -5 22 19 50 14 60 -10 5 -13 10 -20 11 -15 1 4 3 12 4
17 1 6 3 14 4 20 0 5 18 18 39 29 20 11 50 32 66 47 24 23 26 29 14 38 -8 6
-14 19 -12 29 1 9 -2 15 -7 11 -5 -3 -7 -10 -4 -15 11 -16 -22 -10 -36 8 -8 9
-9 14 -3 10 7 -4 15 0 18 8 5 14 9 14 35 0 64 -33 77 -21 84 77 l4 47 -25 -20
c-14 -10 -28 -17 -31 -13 -3 3 5 14 19 25 14 10 31 24 38 30 10 9 17 6 30 -12
9 -13 20 -32 25 -43 6 -15 5 -17 -6 -7 -8 6 -17 8 -20 4 -4 -3 -7 6 -7 20 0
15 -4 27 -8 27 -5 0 -4 -31 1 -70 6 -38 14 -70 18 -70 5 0 9 8 9 18 0 9 4 13
8 7 9 -13 35 -19 28 -6 -4 5 4 17 16 25 17 12 24 13 30 3 4 -6 8 48 8 121 0
72 -1 132 -2 132 -2 0 -46 -23 -98 -51z m85 -119 c-3 -5 -12 -10 -18 -10 -7 0
-6 4 3 10 19 12 23 12 15 0z m-70 -59 c3 -5 1 -12 -5 -16 -5 -3 -10 1 -10 9 0
18 6 21 15 7z m-275 -136 c0 -25 -15 -24 -16 1 -1 13 2 21 7 18 5 -3 9 -11 9
-19z m61 -5 c5 0 9 -4 9 -9 0 -4 -11 -6 -25 -3 -14 2 -25 9 -25 14 0 6 7 7 16
4 9 -3 20 -6 25 -6z m-193 -80 c-5 -41 -6 -102 -3 -135 6 -65 -7 -106 -22 -70
-4 11 -8 61 -8 110 0 68 5 101 19 133 11 23 20 41 21 40 1 -2 -2 -37 -7 -78z
m219 48 c-3 -7 -5 -2 -5 12 0 14 2 19 5 13 2 -7 2 -19 0 -25z m-210 -160 c-3
-7 -5 -2 -5 12 0 14 2 19 5 13 2 -7 2 -19 0 -25z m-65 5 c-6 -2 -9 -10 -6 -15
4 -7 2 -8 -5 -4 -13 9 -5 26 12 25 9 0 8 -2 -1 -6z m-54 -53 c-7 -11 -17 -20
-22 -20 -5 0 -1 9 9 20 10 11 20 20 22 20 2 0 -2 -9 -9 -20z m60 -58 c6 -18
-15 -14 -22 4 -4 10 -1 14 6 12 6 -2 14 -10 16 -16z m-38 -2 c0 -5 -5 -10 -11
-10 -5 0 -7 5 -4 10 3 6 8 10 11 10 2 0 4 -4 4 -10z m-23 -26 c-3 -3 -12 -4
-19 -1 -8 3 -5 6 6 6 11 1 17 -2 13 -5z m-29 -35 c-3 -8 -7 -3 -11 10 -4 17
-3 21 5 13 5 -5 8 -16 6 -23z m-18 -13 c0 -2 -7 -7 -16 -10 -8 -3 -12 -2 -9 4
6 10 25 14 25 6z m-1 -100 c-9 -8 -10 -7 -5 7 3 10 7 28 7 40 2 16 3 14 6 -7
3 -16 -1 -34 -8 -40z m-86 9 c-3 -9 -8 -14 -10 -11 -3 3 -2 9 2 15 9 16 15 13
8 -4z"/>
<path d="M5150 9064 c0 -81 3 -103 13 -98 9 6 9 4 -1 -8 -11 -14 -4 -23 45
-66 32 -28 60 -48 63 -46 3 3 -3 10 -13 15 -9 6 -17 15 -17 20 0 6 5 7 12 3 7
-4 8 -3 4 4 -4 7 -13 12 -21 12 -8 0 -17 6 -21 13 -4 6 -3 9 1 4 5 -4 19 0 32
8 22 15 23 15 23 -15 0 -20 6 -32 18 -36 9 -3 25 -10 34 -15 23 -12 31 -12 23
1 -7 11 43 26 53 15 9 -9 -47 -57 -59 -50 -5 4 -9 2 -9 -3 0 -16 59 -52 77
-46 13 4 15 3 5 -4 -11 -7 -5 -16 24 -41 43 -35 60 -38 92 -15 23 16 30 44 10
44 -6 0 -9 3 -6 6 4 3 16 0 28 -6 18 -10 21 -18 16 -43 -7 -37 -20 -47 -61
-47 -25 -1 -28 -3 -15 -13 18 -14 109 -124 127 -153 9 -15 9 -11 2 21 -8 38
-11 275 -3 275 2 0 10 -14 19 -30 10 -20 16 -58 16 -111 0 -45 5 -93 10 -106
6 -16 5 -22 -1 -18 -19 12 -10 -57 12 -94 33 -55 90 -116 110 -117 23 -2 23
13 1 18 -15 3 -13 5 5 10 20 5 23 3 20 -15 -2 -12 -9 -21 -16 -20 -21 5 -13
-10 51 -97 56 -78 78 -113 122 -196 l15 -29 0 26 c0 48 -32 214 -57 292 -83
264 -242 503 -428 644 -54 41 -183 120 -277 171 l-78 41 0 -105z m36 -11 c-7
-7 -26 7 -26 19 0 6 6 6 15 -2 9 -7 13 -15 11 -17z m135 -60 c13 -16 12 -17
-3 -4 -10 7 -18 15 -18 17 0 8 8 3 21 -13z m35 -56 c34 -25 64 -44 67 -40 4 3
5 -4 2 -15 -3 -15 6 -29 28 -47 20 -16 24 -23 12 -18 -20 7 -50 41 -50 56 0
12 -127 107 -135 102 -4 -2 -7 2 -7 10 0 9 5 11 11 7 6 -5 39 -29 72 -55z
m-93 33 c3 -12 0 -20 -8 -20 -8 0 -11 8 -8 20 3 11 7 20 8 20 1 0 5 -9 8 -20z
m221 -115 c36 -29 41 -51 14 -58 -19 -5 -19 -5 -2 14 9 10 13 19 8 19 -5 1
-22 12 -39 25 -16 14 -25 25 -20 25 6 -1 23 -12 39 -25z m234 -276 c19 -17 32
-33 29 -36 -3 -3 -23 11 -43 31 -45 44 -33 48 14 5z m42 -94 c4 2 16 -5 26
-17 12 -13 13 -18 4 -12 -8 5 -18 9 -22 9 -19 0 -47 36 -41 52 6 14 8 12 16
-10 5 -15 12 -25 17 -22z m-50 23 c0 -7 -5 -20 -11 -28 -9 -13 -10 -13 -6 0 2
8 -3 20 -12 27 -14 11 -13 12 7 13 12 0 22 -6 22 -12z m66 -73 c-3 -9 0 -15
10 -15 8 0 12 5 9 10 -3 6 -4 10 -1 10 3 0 10 -8 15 -19 9 -16 7 -20 -14 -23
-13 -3 -24 -2 -23 1 2 18 -4 22 -17 11 -21 -17 -19 -4 3 19 21 24 26 25 18 6z
m74 -85 c0 -5 -2 -10 -4 -10 -3 0 -8 5 -11 10 -3 6 -1 10 4 10 6 0 11 -4 11
-10z m0 -54 c0 -2 -7 -7 -16 -10 -8 -3 -12 -2 -9 4 6 10 25 14 25 6z"/>
<path d="M5068 8859 c-10 -5 -18 -17 -18 -24 0 -8 -3 -15 -7 -15 -5 -1 -24
-15 -43 -32 -19 -17 -24 -24 -10 -15 14 9 41 26 60 36 22 12 36 27 37 40 1 12
1 21 0 21 -1 0 -10 -5 -19 -11z"/>
<path d="M4930 8839 c-17 -13 -18 -17 -5 -10 33 17 51 31 40 31 -5 0 -21 -10
-35 -21z"/>
<path d="M5150 8693 c0 -80 3 -143 7 -140 3 4 13 -2 20 -13 8 -11 18 -18 22
-16 4 3 13 1 21 -4 12 -7 11 -10 -3 -16 -12 -4 -26 1 -43 16 l-24 23 0 -80 0
-80 39 1 c22 0 34 4 28 8 -9 5 -8 8 3 8 16 1 95 57 95 68 1 12 24 47 25 37 0
-6 -5 -16 -12 -23 -20 -20 7 -14 35 8 14 11 39 23 55 26 60 12 40 -16 -47 -68
-49 -29 -88 -54 -87 -55 2 -2 52 -6 112 -9 60 -3 124 -10 143 -14 19 -5 37 -8
39 -5 10 9 -23 79 -67 142 -74 105 -186 212 -268 257 -40 21 -75 46 -78 54 -5
13 -3 13 12 1 16 -13 17 -12 4 4 -7 9 -17 17 -22 17 -5 0 -9 -66 -9 -147z m57
-38 c43 -21 61 -44 71 -93 9 -38 7 -46 -13 -71 -25 -29 -54 -37 -51 -15 1 7
11 23 22 35 10 12 13 19 6 15 -10 -6 -11 -1 -6 19 5 21 0 33 -22 56 -15 16
-34 27 -41 25 -8 -4 -13 3 -13 19 0 29 6 30 47 10z m103 -47 c0 -6 -6 -5 -15
2 -8 7 -15 14 -15 16 0 2 7 1 15 -2 8 -4 15 -11 15 -16z m-14 -126 c-15 -15
-15 -15 -4 10 7 15 15 23 17 17 2 -6 -4 -18 -13 -27z m-108 -8 c-10 -10 -28 6
-28 24 0 15 1 15 17 -1 9 -9 14 -19 11 -23z"/>
<path d="M5235 8600 c10 -11 20 -20 23 -20 3 0 -3 9 -13 20 -10 11 -20 20 -23
20 -3 0 3 -9 13 -20z"/>
<path d="M4437 8743 c-57 -73 -87 -118 -87 -130 0 -4 10 8 22 27 12 19 46 65
76 103 29 37 51 67 48 67 -3 0 -29 -30 -59 -67z"/>
<path d="M5020 8780 c-25 -17 -51 -28 -58 -25 -8 3 -10 0 -6 -7 5 -8 2 -9 -9
-5 -9 3 -19 1 -23 -5 -5 -7 -2 -9 7 -4 8 4 3 -1 -11 -11 -107 -77 -280 -299
-280 -359 0 -12 4 -14 13 -7 19 16 58 22 136 24 46 1 77 7 86 15 10 10 14 11
17 2 3 -8 6 -9 11 -1 5 9 -71 73 -87 73 -3 0 -19 8 -35 18 -19 12 -27 22 -22
30 8 13 93 -27 191 -91 l45 -29 -40 6 c-33 4 -37 3 -20 -6 11 -6 50 -12 88
-14 l68 -2 -2 127 c-1 69 -6 132 -12 139 -6 8 -6 12 2 12 7 0 11 26 11 75 0
86 -3 88 -70 45z m20 -147 c0 -7 5 -13 11 -13 5 0 7 5 3 12 -4 7 -3 8 4 4 20
-12 13 -26 -11 -26 -37 0 -63 -38 -58 -86 0 -7 12 -19 26 -28 19 -13 23 -13
19 -2 -3 8 -12 17 -20 20 -8 3 -14 11 -14 17 0 8 4 8 15 -1 12 -10 19 -10 27
-2 32 32 53 -12 24 -50 -36 -48 -126 11 -126 82 0 30 32 81 47 76 7 -3 12 -2
12 2 -4 27 1 32 21 20 11 -7 20 -18 20 -25z m-135 -161 c-3 -3 -11 0 -18 7 -9
10 -8 11 6 5 10 -3 15 -9 12 -12z"/>
<path d="M5005 8620 c-3 -6 1 -7 9 -4 18 7 21 14 7 14 -6 0 -13 -4 -16 -10z"/>
<path d="M5550 8700 c-6 -11 -8 -20 -6 -20 3 0 10 9 16 20 6 11 8 20 6 20 -3
0 -10 -9 -16 -20z"/>
<path d="M5936 8697 c3 -10 9 -15 12 -12 3 3 0 11 -7 18 -10 9 -11 8 -5 -6z"/>
<path d="M4320 8560 c-11 -22 -18 -40 -15 -40 2 0 14 18 25 40 11 22 18 40 15
40 -2 0 -14 -18 -25 -40z"/>
<path d="M5910 8531 c0 -6 4 -13 10 -16 6 -3 7 1 4 9 -7 18 -14 21 -14 7z"/>
<path d="M5970 8405 c0 -5 5 -17 10 -25 5 -8 10 -10 10 -5 0 6 -5 17 -10 25
-5 8 -10 11 -10 5z"/>
<path d="M4520 8365 c-7 -8 -9 -15 -5 -15 4 0 -5 -16 -19 -35 -15 -19 -23 -35
-19 -35 8 0 47 58 48 70 0 3 4 11 8 18 11 17 2 15 -13 -3z"/>
<path d="M5652 8230 l-4 -119 24 6 23 6 -23 -25 c-12 -14 -26 -42 -29 -63 l-6
-37 32 17 c18 9 38 14 44 12 7 -2 31 20 55 49 l43 53 -42 63 c-33 48 -101 142
-113 155 0 0 -2 -52 -4 -117z"/>
<path d="M5152 8230 c2 -59 5 -106 7 -104 2 2 10 -1 17 -7 9 -7 20 -6 38 6 14
10 26 13 26 7 0 -6 -4 -13 -9 -16 -5 -3 -7 -15 -4 -26 5 -18 17 -19 18 -2 1 4
7 18 14 31 8 14 10 36 6 57 -7 42 -42 55 -80 30 -31 -20 -33 -4 -3 24 25 23
40 25 71 8 19 -10 20 -9 10 4 -7 8 -10 18 -6 22 4 4 -1 4 -12 1 -19 -6 -19 -6
-1 5 15 10 22 8 43 -13 23 -23 28 -45 24 -104 -1 -25 -48 -81 -71 -85 -8 -2
-19 -7 -23 -13 -5 -6 -7 2 -4 18 3 21 0 27 -14 27 -9 0 -26 3 -36 6 -10 3 -6
-2 9 -10 17 -10 25 -22 22 -31 -7 -19 -9 -19 -27 0 -13 13 -16 8 -19 -40 -3
-50 -1 -55 18 -55 34 0 105 40 186 104 57 46 74 64 66 73 -7 9 -7 13 0 13 6 0
12 -5 14 -11 2 -6 30 2 69 19 70 31 79 46 79 121 l0 27 -110 -4 c-61 -3 -143
1 -183 7 -40 6 -87 13 -105 16 l-33 4 3 -109z m287 -29 c-1 -13 -2 -13 -6 2
-4 14 -8 16 -19 6 -11 -9 -14 -8 -14 3 0 8 3 18 7 21 10 10 33 -13 32 -32z"/>
<path d="M5000 8318 c-47 -5 -147 -6 -223 -3 l-138 5 3 -57 3 -56 82 -43 c45
-23 110 -62 145 -87 61 -43 142 -89 164 -93 6 -1 21 -5 33 -9 20 -6 21 -3 21
58 0 55 -3 65 -19 70 -14 3 -18 -1 -18 -18 0 -16 4 -22 13 -18 8 3 14 0 14 -7
0 -18 -55 -5 -91 21 -63 45 -79 146 -29 178 l25 15 -20 -24 -20 -24 25 15 c45
29 110 7 110 -37 0 -23 -1 -24 -16 -10 -32 32 -50 37 -69 16 -10 -11 -15 -28
-12 -40 3 -11 1 -18 -4 -14 -23 14 -5 -16 28 -47 21 -18 28 -22 15 -8 -25 29
-30 48 -7 29 15 -12 20 -5 16 25 -1 6 6 1 14 -9 8 -11 15 -23 15 -28 0 -4 7
-8 15 -8 12 0 15 19 15 110 0 61 -1 109 -2 109 -2 -1 -41 -6 -88 -11z m-170
-94 c0 -6 -7 -14 -15 -18 -10 -3 -15 1 -15 13 0 10 7 18 15 18 8 0 15 -6 15
-13z m-13 -81 c-3 -10 -5 -4 -5 12 0 17 2 24 5 18 2 -7 2 -21 0 -30z m26 0 c4
-19 2 -33 -3 -33 -6 0 -10 17 -10 37 0 43 5 41 13 -4z"/>
<path d="M4540 8296 c-8 -13 -35 -49 -59 -80 -43 -55 -44 -58 -33 -95 7 -21
21 -46 32 -56 11 -10 20 -24 20 -31 0 -16 59 -66 70 -59 5 3 6 29 3 58 -2 28
-8 105 -11 170 -7 109 -8 115 -22 93z m30 -309 c0 -10 -59 35 -59 46 -1 4 13
-2 29 -15 17 -12 30 -26 30 -31z"/>
<path d="M4444 8248 l-19 -23 25 20 c14 11 27 21 29 22 2 2 0 3 -6 3 -5 0 -18
-10 -29 -22z"/>
<path d="M5030 8235 c0 -2 10 -10 23 -16 20 -11 21 -11 8 4 -13 16 -31 23 -31
12z"/>
<path d="M4640 8180 c0 -5 18 -19 40 -30 22 -11 40 -19 40 -17 0 3 -18 16 -40
31 -22 14 -40 22 -40 16z"/>
<path d="M5529 8154 c-19 -15 -25 -23 -14 -19 11 4 28 7 38 7 10 0 17 7 17 19
0 24 1 24 -41 -7z"/>
<path d="M4731 8127 c16 -12 79 -45 79 -42 0 7 -63 45 -74 45 -5 0 -7 -1 -5
-3z"/>
<path d="M4318 8032 l-75 -79 -8 -96 c-4 -53 -5 -97 -2 -97 2 0 35 13 74 29
38 15 104 38 146 51 42 13 77 24 77 26 0 2 -25 39 -56 81 -58 82 -88 139 -78
154 14 23 -9 3 -78 -69z m133 -92 c1 -8 0 -19 -1 -25 -1 -5 2 -7 6 -2 4 4 16
0 26 -10 32 -28 20 -32 -29 -7 -27 13 -69 31 -96 40 -67 24 -53 28 16 5 32
-10 57 -15 57 -11 0 4 -7 25 -16 46 l-15 39 25 -30 c14 -16 26 -37 27 -45z"/>
<path d="M4650 8106 c0 -28 46 -138 64 -155 22 -20 31 -23 68 -17 24 4 59 10
78 12 89 12 89 11 14 62 -80 53 -224 117 -224 98z"/>
<path d="M5835 8102 c4 -7 0 -21 -8 -30 -16 -19 -72 -131 -72 -147 -1 -5 -6
-19 -13 -30 -8 -14 -14 -16 -19 -8 -6 8 -13 7 -28 -4 -19 -15 -19 -15 4 -8 15
5 21 4 17 -3 -4 -7 14 -17 46 -27 60 -18 61 -18 54 -7 -3 5 1 9 9 9 8 0 15 -6
15 -12 0 -12 126 -75 149 -75 10 0 12 22 9 95 l-4 96 -83 82 c-46 45 -80 76
-76 69z m-21 -87 c-17 -43 -18 -42 3 -49 9 -4 20 -1 25 6 5 9 8 5 8 -11 0 -20
4 -23 32 -19 28 5 29 4 13 -9 -11 -7 -23 -13 -28 -13 -5 0 -7 -6 -4 -13 4 -10
-2 -13 -19 -9 -16 3 -24 10 -22 21 3 19 -9 41 -24 41 -7 0 -7 -4 -1 -12 10
-13 23 -68 17 -68 -7 0 -39 37 -41 48 -2 6 9 36 22 66 27 60 43 79 19 21z"/>
<path d="M5474 8071 c-66 -31 -166 -100 -159 -111 2 -4 43 -12 90 -19 l87 -13
28 27 c25 24 50 88 50 129 0 23 -26 19 -96 -13z"/>
<path d="M4820 8086 c0 -2 8 -10 18 -17 15 -13 16 -12 3 4 -13 16 -21 21 -21
13z"/>
<path d="M5349 8043 c-13 -17 -13 -17 6 -3 11 8 22 16 24 17 2 2 0 3 -6 3 -6
0 -17 -8 -24 -17z"/>
<path d="M4273 8025 c0 -8 4 -12 9 -9 5 3 6 10 3 15 -9 13 -12 11 -12 -6z"/>
<path d="M4153 7756 c-9 -27 -8 -33 2 -29 18 6 27 32 17 49 -6 11 -11 6 -19
-20z"/>
<path d="M5145 7779 c30 -52 503 -692 591 -799 112 -137 245 -324 240 -337 -3
-7 0 -15 6 -19 7 -5 8 -2 3 7 -8 12 -6 12 8 0 9 -7 17 -19 16 -25 0 -6 -3 -6
-6 2 -4 10 -8 10 -21 0 -13 -11 -14 -11 -7 1 5 10 4 12 -3 7 -7 -4 -12 -16
-12 -26 0 -10 -4 -22 -10 -25 -5 -3 -9 -27 -8 -53 1 -26 -1 -55 -6 -64 -21
-46 19 -9 91 82 79 100 144 205 178 290 20 52 35 247 17 236 -6 -4 -8 1 -5 14
9 34 -51 142 -125 225 -71 78 -133 175 -113 175 6 0 11 -4 11 -9 0 -4 28 -30
63 -56 34 -26 129 -116 210 -199 123 -125 154 -164 185 -225 34 -70 37 -82 41
-183 4 -127 -16 -265 -61 -407 l-29 -96 4 -215 c5 -229 14 -282 62 -365 13
-22 114 -157 224 -300 111 -143 243 -316 294 -384 50 -68 162 -214 246 -325
385 -501 429 -556 435 -540 3 9 3 26 0 39 -3 13 -1 32 6 42 10 16 10 15 5 -7
-4 -20 -2 -19 12 7 9 18 25 35 36 39 10 3 16 8 13 11 -3 3 -17 -2 -30 -11
l-25 -16 15 35 c11 27 11 35 2 35 -7 0 -14 12 -15 27 -1 19 1 22 8 12 6 -10 9
-7 9 13 0 20 -4 26 -15 22 -11 -5 -15 1 -15 17 0 17 3 20 9 11 5 -8 8 1 8 25
0 21 -2 29 -4 18 -6 -23 -23 -36 -37 -28 -5 3 -2 11 6 17 9 6 18 30 21 52 5
34 3 41 -16 49 -23 10 -31 42 -9 38 6 -2 12 4 12 12 0 8 -4 15 -10 15 -5 0
-10 5 -10 11 0 5 5 7 11 4 5 -4 19 1 30 11 14 13 16 20 7 25 -9 6 -8 12 3 25
9 11 9 15 2 10 -7 -4 -13 -3 -13 3 0 5 9 13 21 16 24 8 52 66 43 89 -8 21 0
20 22 -1 17 -17 17 -16 11 15 -4 17 -3 32 1 32 14 0 -4 451 -22 545 -119 635
-342 1062 -785 1506 -199 199 -329 303 -542 435 -328 204 -772 354 -1243 420
-40 5 -47 4 -41 -7z m2524 -3102 c0 -9 -2 -9 -6 1 -2 6 -11 12 -19 12 -8 0
-14 5 -14 10 0 7 6 7 20 0 11 -6 20 -16 19 -23z m-8 -142 c5 3 6 -1 3 -9 -5
-13 -8 -13 -20 -1 -8 7 -14 20 -14 27 0 8 5 6 11 -5 6 -9 14 -15 20 -12z"/>
<path d="M6060 7758 c0 -14 7 -29 16 -32 12 -5 14 -1 9 17 -11 35 -25 44 -25
15z"/>
<path d="M4935 7439 c-11 -17 1 -21 15 -4 8 9 8 15 2 15 -6 0 -14 -5 -17 -11z"/>
<path d="M4908 7370 c-21 -52 -14 -52 12 0 11 22 17 40 13 40 -5 0 -16 -18
-25 -40z"/>
<path d="M4775 7239 c-11 -17 1 -21 15 -4 8 9 8 15 2 15 -6 0 -14 -5 -17 -11z"/>
<path d="M5118 7192 c2 -20 26 -57 63 -99 32 -38 68 -85 79 -105 11 -21 25
-38 30 -38 6 0 10 -6 10 -12 0 -7 23 -42 50 -77 28 -35 50 -68 50 -73 0 -5 5
-6 10 -3 6 3 10 -1 10 -9 0 -8 9 -21 20 -29 11 -8 17 -17 13 -20 -3 -4 -1 -7
5 -7 6 0 18 -15 27 -34 9 -18 25 -43 36 -55 11 -11 16 -21 12 -21 -4 0 9 -16
30 -35 20 -18 37 -41 37 -50 0 -9 4 -14 9 -11 5 3 18 -9 30 -27 11 -17 21 -28
21 -24 0 7 -116 171 -388 547 -61 85 -123 168 -135 184 l-24 30 5 -32z"/>
<path d="M4640 7080 c0 -5 5 -10 11 -10 5 0 7 5 4 10 -3 6 -8 10 -11 10 -2 0
-4 -4 -4 -10z"/>
<path d="M4618 7029 c-9 -18 -14 -37 -11 -42 7 -11 35 52 30 66 -2 6 -10 -5
-19 -24z"/>
<path d="M4587 6973 c-10 -9 -9 -23 1 -23 5 0 9 7 9 15 0 17 -1 18 -10 8z"/>
<path d="M4629 6969 c-10 -6 -10 -9 -1 -9 6 0 12 -7 12 -15 0 -12 3 -12 20 2
11 10 20 20 20 23 0 10 -35 9 -51 -1z"/>
<path d="M5039 6842 c-47 -64 -92 -132 -100 -149 -8 -18 -17 -33 -21 -33 -3 0
-5 -11 -4 -25 2 -13 0 -22 -4 -20 -9 6 -17 -49 -20 -130 0 -33 -5 -64 -11 -69
-5 -6 -9 -17 -9 -25 0 -8 -8 -24 -17 -35 -16 -19 -15 -18 7 1 24 21 26 21 26
3 0 -10 -3 -17 -7 -14 -4 2 -9 -5 -12 -16 -3 -11 -1 -17 4 -14 6 3 8 -5 4 -20
-3 -14 -7 -38 -10 -52 -3 -14 -1 -32 6 -40 10 -12 8 -13 -7 -8 -17 5 -17 4 -3
-8 14 -12 14 -15 -3 -32 -11 -12 -15 -23 -9 -29 6 -6 2 -23 -10 -44 -11 -19
-14 -31 -8 -27 12 7 -4 -16 -85 -125 -86 -116 -156 -298 -156 -406 0 -23 -5
-66 -11 -97 -10 -49 -8 -67 19 -174 49 -196 106 -296 244 -430 50 -49 326
-254 342 -254 2 0 62 66 132 147 71 82 170 193 219 248 335 370 645 818 645
929 0 6 -23 -27 -50 -73 -28 -46 -64 -102 -79 -125 -15 -22 -54 -90 -86 -151
-32 -60 -65 -119 -73 -130 -13 -19 -14 -19 -6 5 15 52 34 125 34 134 0 6 -13
-3 -30 -19 -16 -16 -30 -34 -30 -41 0 -7 -4 -14 -9 -16 -4 -1 -28 -39 -53 -83
-25 -44 -49 -80 -54 -80 -18 0 -25 102 -21 355 4 291 9 322 87 509 l30 74 -22
24 c-13 14 -28 21 -37 18 -9 -3 -12 -3 -9 1 9 9 -6 36 -55 101 -39 53 -74 66
-39 15 11 -15 22 -40 26 -55 4 -15 11 -25 16 -22 6 3 10 -1 10 -10 0 -11 5
-15 15 -11 9 3 15 0 15 -8 0 -8 -6 -17 -12 -19 -8 -3 -6 -6 5 -6 26 -1 23 -62
-4 -79 -25 -16 -4 -40 -264 303 -313 412 -346 455 -353 455 -4 0 -46 -53 -93
-118z"/>
<path d="M4610 6875 c-7 -9 -8 -15 -2 -15 5 0 12 7 16 15 3 8 4 15 2 15 -2 0
-9 -7 -16 -15z"/>
<path d="M4509 6838 c-12 -23 -12 -23 10 -4 23 21 26 26 11 26 -5 0 -15 -10
-21 -22z"/>
<path d="M4420 6730 c-11 -11 -20 -24 -20 -30 0 -17 20 -11 27 8 4 9 14 22 22
29 11 8 12 12 4 13 -7 0 -22 -9 -33 -20z"/>
<path d="M2956 6710 c7 -28 12 -35 18 -29 2 2 -2 15 -10 29 l-15 25 7 -25z"/>
<path d="M4373 6608 c-19 -25 -24 -38 -14 -38 6 0 11 8 11 18 0 14 2 15 10 2
8 -12 10 -11 10 8 0 25 -4 27 -17 10z"/>
<path d="M2997 6591 c-3 -13 0 -18 7 -15 7 3 13 11 13 19 0 22 -14 18 -20 -4z"/>
<path d="M4235 6590 c3 -5 11 -10 16 -10 6 0 7 5 4 10 -3 6 -11 10 -16 10 -6
0 -7 -4 -4 -10z"/>
<path d="M2960 6565 c-11 -13 -11 -18 0 -28 10 -9 11 -9 5 2 -4 8 -2 17 6 22
7 4 11 11 8 14 -4 3 -12 -2 -19 -10z"/>
<path d="M4335 6540 c-3 -5 -1 -10 4 -10 6 0 11 5 11 10 0 6 -2 10 -4 10 -3 0
-8 -4 -11 -10z"/>
<path d="M3005 6500 c-3 -5 -1 -10 4 -10 6 0 11 5 11 10 0 6 -2 10 -4 10 -3 0
-8 -4 -11 -10z"/>
<path d="M3036 6454 c-5 -14 -4 -15 9 -4 17 14 19 20 6 20 -5 0 -12 -7 -15
-16z"/>
<path d="M3105 6460 c3 -5 8 -10 11 -10 2 0 4 5 4 10 0 6 -5 10 -11 10 -5 0
-7 -4 -4 -10z"/>
<path d="M4286 6407 c3 -10 9 -15 12 -12 3 3 0 11 -7 18 -10 9 -11 8 -5 -6z"/>
<path d="M5730 6225 c-8 -9 -8 -15 -2 -15 12 0 26 19 19 26 -2 2 -10 -2 -17
-11z"/>
<path d="M6351 6193 c-12 -26 -42 -82 -65 -123 -44 -77 -82 -167 -74 -175 10
-11 172 317 166 336 -2 6 -14 -11 -27 -38z"/>
<path d="M4772 6134 c-6 -12 -9 -24 -6 -27 3 -3 0 -15 -6 -27 -10 -18 -9 -21
1 -18 14 5 33 62 26 81 -2 7 -9 3 -15 -9z"/>
<path d="M4753 6035 c0 -8 4 -15 9 -15 4 0 8 4 8 9 0 6 -4 12 -8 15 -5 3 -9
-1 -9 -9z"/>
<path d="M4740 6000 c0 -5 5 -10 10 -10 6 0 10 5 10 10 0 6 -4 10 -10 10 -5 0
-10 -4 -10 -10z"/>
<path d="M2950 5960 c-9 -6 -10 -10 -3 -10 6 0 19 -3 27 -6 12 -5 15 -2 10 10
-7 18 -13 20 -34 6z"/>
<path d="M2946 5932 c-3 -6 -1 -14 5 -17 15 -10 25 3 12 16 -7 7 -13 7 -17 1z"/>
<path d="M4259 5738 c-1 -7 0 -17 1 -23 1 -5 4 -29 6 -53 3 -32 1 -41 -9 -37
-6 4 -3 -1 8 -10 14 -12 16 -19 8 -22 -7 -3 -11 -14 -9 -26 3 -12 10 -51 17
-87 6 -36 32 -108 57 -160 38 -79 58 -107 126 -175 91 -90 180 -164 156 -128
-107 155 -139 207 -188 305 -32 64 -82 186 -111 272 -29 86 -55 156 -57 156
-2 0 -5 -6 -5 -12z"/>
<path d="M2915 5690 c3 -5 8 -10 11 -10 2 0 4 5 4 10 0 6 -5 10 -11 10 -5 0
-7 -4 -4 -10z"/>
<path d="M2845 5570 c3 -5 8 -10 11 -10 2 0 4 5 4 10 0 6 -5 10 -11 10 -5 0
-7 -4 -4 -10z"/>
<path d="M6335 5318 c-13 -79 -57 -202 -107 -303 -44 -88 -121 -210 -446 -708
l-73 -112 58 -53 c76 -68 265 -195 325 -217 100 -37 231 9 344 120 22 22 72
68 111 103 l71 62 231 0 c127 0 231 2 231 5 0 11 -105 149 -337 440 -256 322
-254 320 -239 340 8 11 19 16 30 12 10 -4 15 -3 11 3 -9 15 2 12 19 -6 15 -14
16 -14 16 3 0 15 3 14 20 -7 11 -14 20 -30 20 -36 0 -15 39 -65 101 -132 70
-75 129 -147 129 -158 0 -5 20 -31 45 -57 25 -27 45 -53 45 -58 0 -5 4 -9 9
-9 5 0 14 -13 19 -29 6 -16 20 -34 31 -40 11 -7 26 -21 32 -32 6 -12 7 -19 1
-15 -5 3 -12 -1 -15 -9 -4 -9 -1 -12 9 -8 19 7 52 -23 69 -62 7 -16 23 -40 35
-53 12 -13 19 -30 16 -38 -3 -9 1 -17 12 -21 27 -10 53 -41 50 -60 -2 -10 3
-18 10 -19 6 -1 16 -2 21 -3 5 0 33 -30 61 -66 28 -36 56 -63 61 -60 5 4 6 -1
3 -9 -4 -10 11 -33 41 -63 26 -27 45 -40 42 -31 -9 27 -538 724 -679 895 -35
43 -99 124 -142 181 -45 59 -85 102 -95 101 -9 0 -11 -3 -4 -5 19 -8 -23 -114
-46 -114 -6 0 -36 39 -110 140 -14 19 -21 32 -17 28 5 -4 18 -3 29 3 15 9 18
8 11 -3 -6 -10 -5 -11 7 -2 17 13 49 14 49 2 0 -5 4 -7 9 -3 5 3 12 1 16 -5 3
-5 15 -10 26 -10 10 0 19 -4 19 -10 0 -5 5 -10 12 -10 7 0 -2 15 -18 33 -17
17 -59 71 -95 119 -35 48 -67 88 -71 88 -3 0 -9 -19 -13 -42z"/>
<path d="M2867 5273 c-4 -3 -7 -11 -7 -17 0 -6 5 -5 12 2 6 6 9 14 7 17 -3 3
-9 2 -12 -2z"/>
<path d="M2680 5218 c0 -6 -10 -25 -23 -42 -33 -44 -43 -64 -20 -41 29 29 66
95 54 95 -6 0 -11 -5 -11 -12z"/>
<path d="M2950 5100 c0 -5 5 -10 11 -10 5 0 7 5 4 10 -3 6 -8 10 -11 10 -2 0
-4 -4 -4 -10z"/>
<path d="M2781 5018 c-1 -36 11 -50 24 -28 3 6 2 10 -4 10 -5 0 -12 12 -14 28
-3 22 -4 20 -6 -10z"/>
<path d="M7750 4786 c0 -13 -7 -26 -15 -30 -17 -6 -20 -42 -5 -51 6 -3 10 -1
10 4 0 6 7 11 15 11 16 0 21 16 6 22 -5 2 -7 15 -4 30 3 16 10 25 16 21 6 -3
7 -1 3 5 -12 20 -26 13 -26 -12z"/>
<path d="M7747 4663 c-2 -5 0 -21 4 -38 7 -29 7 -29 8 8 1 35 -3 46 -12 30z"/>
<path d="M7700 4625 c0 -8 2 -15 4 -15 2 0 6 7 10 15 3 8 1 15 -4 15 -6 0 -10
-7 -10 -15z"/>
<path d="M7690 4580 c0 -5 4 -10 9 -10 6 0 13 5 16 10 3 6 -1 10 -9 10 -9 0
-16 -4 -16 -10z"/>
<path d="M5350 4456 c0 -2 8 -10 18 -17 15 -13 16 -12 3 4 -13 16 -21 21 -21
13z"/>
<path d="M5410 4408 c28 -22 32 -22 46 0 10 15 7 17 -29 18 l-40 0 23 -18z"/>
<path d="M7734 4075 c-4 -9 -2 -21 5 -26 6 -5 9 -6 6 -3 -3 4 0 13 6 20 7 8 7
14 -1 19 -5 3 -13 -1 -16 -10z"/>
<path d="M7630 2140 c-9 -6 -10 -10 -3 -10 6 0 15 5 18 10 8 12 4 12 -15 0z"/>
<path d="M8751 2038 c-13 -13 -20 -17 -16 -9 5 8 -7 3 -27 -12 -20 -16 -48
-27 -65 -27 -43 0 -94 20 -87 33 5 8 3 9 -4 2 -15 -14 -19 -39 -7 -40 6 -1 27
-9 47 -18 21 -10 50 -17 66 -17 39 0 91 38 108 78 7 17 12 32 11 32 -2 0 -13
-10 -26 -22z"/>
<path d="M4209 8723 c-13 -16 -12 -17 4 -4 9 7 17 15 17 17 0 8 -8 3 -21 -13z"/>
<path d="M8035 6269 c-4 -6 -5 -12 -2 -15 2 -3 7 2 10 11 7 17 1 20 -8 4z"/>
<path d="M2290 6227 c-17 -14 -26 -42 -10 -32 9 6 34 45 28 45 -2 0 -10 -6
-18 -13z"/>
<path d="M3510 5285 c0 -8 2 -15 4 -15 2 0 6 7 10 15 3 8 1 15 -4 15 -6 0 -10
-7 -10 -15z"/>
<path d="M3595 5260 c3 -5 8 -10 11 -10 2 0 4 5 4 10 0 6 -5 10 -11 10 -5 0
-7 -4 -4 -10z"/>
<path d="M3620 5260 c0 -5 5 -10 11 -10 5 0 7 5 4 10 -3 6 -8 10 -11 10 -2 0
-4 -4 -4 -10z"/>
<path d="M3625 5100 c-3 -5 -1 -10 4 -10 6 0 11 5 11 10 0 6 -2 10 -4 10 -3 0
-8 -4 -11 -10z"/>
<path d="M3566 5092 c-3 -5 1 -9 9 -9 8 0 12 4 9 9 -3 4 -7 8 -9 8 -2 0 -6 -4
-9 -8z"/>
<path d="M3611 5044 c0 -11 3 -14 6 -6 3 7 2 16 -1 19 -3 4 -6 -2 -5 -13z"/>
<path d="M3487 4961 c-2 -10 -1 -25 4 -32 6 -10 9 -4 9 19 0 36 -5 42 -13 13z"/>
<path d="M3621 4934 c0 -11 3 -14 6 -6 3 7 2 16 -1 19 -3 4 -6 -2 -5 -13z"/>
<path d="M3168 4884 c-5 -4 -8 -19 -8 -33 1 -23 2 -24 11 -8 11 19 9 53 -3 41z"/>
<path d="M3327 4850 c-3 -11 -1 -20 4 -20 5 0 9 9 9 20 0 11 -2 20 -4 20 -2 0
-6 -9 -9 -20z"/>
<path d="M3640 4851 c-13 -11 -28 -17 -32 -15 -4 3 -5 -2 -2 -11 5 -12 9 -13
18 -3 6 7 20 21 31 31 26 23 16 21 -15 -2z"/>
<path d="M3123 4770 c-3 -11 -9 -20 -14 -20 -5 0 -9 -7 -9 -15 0 -8 -4 -15
-10 -15 -5 0 -10 4 -10 8 0 5 -6 9 -14 9 -7 0 -12 -7 -11 -16 2 -9 4 -32 5
-51 2 -23 4 -28 7 -15 5 17 19 38 64 93 5 6 7 12 3 12 -3 0 -1 7 6 15 10 12
10 15 0 15 -6 0 -14 -9 -17 -20z"/>
<path d="M3291 4724 c-23 -29 -27 -49 -11 -59 6 -3 7 1 4 10 -4 10 3 29 15 46
27 36 20 39 -8 3z"/>
<path d="M3620 4720 c0 -5 7 -10 15 -10 8 0 15 5 15 10 0 6 -7 10 -15 10 -8 0
-15 -4 -15 -10z"/>
<path d="M3256 4643 c-6 -14 -5 -15 5 -6 7 7 10 15 7 18 -3 3 -9 -2 -12 -12z"/>
<path d="M3104 4641 c3 -5 -8 -26 -25 -47 -27 -35 -60 -87 -46 -74 14 14 87
115 87 122 0 5 -5 8 -11 8 -5 0 -8 -4 -5 -9z"/>
<path d="M3231 4607 c-8 -10 -7 -14 2 -14 8 0 14 6 14 14 0 7 -1 13 -2 13 -2
0 -8 -6 -14 -13z"/>
<path d="M3471 4569 c-2 -27 21 -129 29 -129 5 0 2 24 -5 53 -7 28 -16 61 -18
72 -3 13 -5 14 -6 4z"/>
<path d="M3621 4550 c-1 -3 -4 -25 -7 -50 -4 -35 -2 -41 6 -27 6 9 9 32 7 50
-2 17 -5 30 -6 27z"/>
<path d="M3144 4498 l-19 -23 23 19 c21 18 27 26 19 26 -2 0 -12 -10 -23 -22z"/>
<path d="M3015 4500 c-3 -5 -1 -10 4 -10 6 0 11 5 11 10 0 6 -2 10 -4 10 -3 0
-8 -4 -11 -10z"/>
<path d="M3000 4470 c-9 -6 -10 -10 -3 -10 6 0 15 5 18 10 8 12 4 12 -15 0z"/>
<path d="M2984 4443 c4 -7 3 -13 -3 -13 -6 0 -7 -7 -4 -17 4 -10 2 -14 -4 -10
-6 4 -17 -1 -24 -10 -37 -44 -115 -90 -162 -95 -31 -4 -55 -13 -68 -27 -25
-27 -15 -27 18 -1 28 22 78 27 89 8 5 -8 9 -7 13 5 3 9 37 38 75 64 80 56 97
76 77 95 -11 10 -12 10 -7 1z"/>
<path d="M3705 4419 c-4 -6 -5 -12 -2 -15 2 -3 7 2 10 11 7 17 1 20 -8 4z"/>
<path d="M3455 4230 c-3 -5 1 -10 9 -10 9 0 16 5 16 10 0 6 -4 10 -9 10 -6 0
-13 -4 -16 -10z"/>
<path d="M2685 4220 c-3 -5 -1 -10 4 -10 6 0 11 5 11 10 0 6 -2 10 -4 10 -3 0
-8 -4 -11 -10z"/>
<path d="M2695 4170 c-3 -5 -3 -16 0 -22 4 -7 1 -6 -7 2 -15 18 -64 27 -54 11
4 -6 14 -11 21 -11 8 0 20 -10 26 -22 l12 -22 9 23 c4 12 6 27 3 31 -3 5 1 11
7 13 9 4 10 6 1 6 -6 1 -15 -3 -18 -9z"/>
<path d="M2660 4030 c-9 -6 -10 -10 -3 -10 6 0 15 5 18 10 8 12 4 12 -15 0z"/>
<path d="M8171 3624 c6 -8 9 -20 6 -29 -11 -28 12 -25 33 5 12 16 20 30 18 31
-2 0 -18 2 -36 3 -27 3 -30 1 -21 -10z"/>
<path d="M3430 3284 c0 -2 9 -8 20 -14 11 -6 20 -7 20 -2 0 6 -9 12 -20 15
-11 3 -20 3 -20 1z"/>
<path d="M4520 3206 c0 -8 -9 -12 -23 -11 -19 2 -23 -2 -24 -29 0 -20 1 -23 4
-8 4 20 6 21 20 7 18 -19 21 -17 33 24 5 19 5 31 -1 31 -5 0 -9 -6 -9 -14z"/>
<path d="M3683 3183 c9 -2 23 -2 30 0 6 3 -1 5 -18 5 -16 0 -22 -2 -12 -5z"/>
<path d="M3624 3145 c-10 -8 -14 -15 -8 -15 6 0 17 7 24 15 16 19 9 19 -16 0z"/>
<path d="M6596 2965 c-9 -14 -13 -25 -8 -25 5 0 14 11 20 25 6 14 10 25 8 25
-2 0 -11 -11 -20 -25z"/>
<path d="M6404 2902 c3 -6 -1 -18 -10 -26 -8 -9 -11 -16 -5 -16 17 0 33 38 19
46 -6 4 -8 3 -4 -4z"/>
<path d="M6381 2833 c-1 -12 4 -25 9 -28 12 -7 12 2 0 30 -8 19 -9 19 -9 -2z"/>
<path d="M6307 2763 c-3 -4 1 -17 9 -28 14 -19 15 -19 11 2 -4 26 -13 38 -20
26z"/>
<path d="M5194 2726 c11 -9 24 -16 30 -16 12 0 7 5 -24 19 -24 11 -24 11 -6
-3z"/>
<path d="M5932 2684 c4 -19 21 -19 24 1 1 8 -4 15 -13 15 -8 0 -13 -7 -11 -16z"/>
<path d="M6140 2685 c7 -8 17 -15 22 -15 5 0 3 7 -6 15 -8 8 -18 15 -22 15 -3
0 -1 -7 6 -15z"/>
<path d="M6205 2680 c-3 -5 1 -10 9 -10 9 0 16 5 16 10 0 6 -4 10 -9 10 -6 0
-13 -4 -16 -10z"/>
<path d="M5776 2657 c3 -10 9 -15 12 -12 3 3 0 11 -7 18 -10 9 -11 8 -5 -6z"/>
<path d="M6126 2648 c3 -4 -4 -8 -15 -8 -12 0 -21 -4 -21 -10 0 -16 23 -11 50
10 24 18 24 19 3 17 -12 0 -19 -5 -17 -9z"/>
<path d="M5806 2628 c3 -10 9 -18 13 -18 4 0 15 -13 24 -30 10 -16 22 -30 27
-30 10 0 0 14 -48 69 -14 16 -20 19 -16 9z"/>
<path d="M5524 2596 c-3 -7 4 -24 15 -37 11 -13 30 -35 41 -49 l21 -25 -20 34
c-11 19 -17 39 -14 44 3 6 1 7 -5 3 -7 -4 -12 -5 -12 -2 0 2 -3 12 -7 22 -4
12 -3 15 5 10 7 -4 12 -2 12 3 0 16 -30 13 -36 -3z"/>
<path d="M5910 2588 c0 -9 5 -20 10 -23 13 -8 13 5 0 25 -8 13 -10 13 -10 -2z"/>
<path d="M5372 2558 c7 -13 18 -48 24 -78 9 -45 12 -49 13 -22 2 50 -19 122
-36 122 -11 0 -12 -4 -1 -22z"/>
<path d="M5730 2572 c0 -12 19 -26 26 -19 2 2 -2 10 -11 17 -9 8 -15 8 -15 2z"/>
<path d="M5767 2565 c3 -8 9 -12 14 -9 12 7 11 11 -5 17 -10 4 -13 1 -9 -8z"/>
<path d="M5430 2490 c-13 -9 -13 -10 0 -10 8 0 26 -3 40 -6 24 -6 25 -6 5 9
-24 19 -26 20 -45 7z"/>
<path d="M2200 2526 c0 -2 8 -10 18 -17 15 -13 16 -12 3 4 -13 16 -21 21 -21
13z"/>
<path d="M2212 2383 c-6 -2 -10 -9 -6 -14 8 -14 21 -11 21 6 0 8 -1 15 -1 14
-1 0 -7 -3 -14 -6z"/>
<path d="M2255 2338 c21 -12 23 -12 28 -1 1 3 -9 8 -23 9 -23 4 -24 3 -5 -8z"/>
<path d="M7694 2345 c-20 -31 -43 -59 -51 -62 -7 -3 -13 -10 -13 -16 0 -6 14
2 31 19 35 32 83 103 76 111 -3 2 -22 -21 -43 -52z"/>
<path d="M7589 2233 c-13 -16 -12 -17 4 -4 16 13 21 21 13 21 -2 0 -10 -8 -17
-17z"/>
<path d="M8470 2185 c-8 -9 -8 -15 -2 -15 12 0 26 19 19 26 -2 2 -10 -2 -17
-11z"/>
<path d="M7010 2195 c-7 -9 -8 -15 -2 -15 5 0 12 7 16 15 3 8 4 15 2 15 -2 0
-9 -7 -16 -15z"/>
<path d="M5995 1934 c-9 -14 -15 -27 -13 -30 2 -2 12 10 22 26 21 37 15 40 -9
4z"/>
<path d="M4667 1739 c7 -7 15 -10 18 -7 3 3 -2 9 -12 12 -14 6 -15 5 -6 -5z"/>
<path d="M4748 1698 c5 -5 16 -8 23 -6 8 3 3 7 -10 11 -17 4 -21 3 -13 -5z"/>
<path d="M4805 1670 c11 -5 27 -9 35 -9 9 0 8 4 -5 9 -11 5 -27 9 -35 9 -9 0
-8 -4 5 -9z"/>
<path d="M4922 1634 c10 -10 20 -16 22 -13 3 3 -5 11 -17 18 -21 13 -21 12 -5
-5z"/>
</g>
</svg>
